<svg width="512" height="512" xmlns="http://www.w3.org/2000/svg">
 <defs>
  <pattern y="512" width="69" viewBox="2.125 -70.896 69 69" patternUnits="userSpaceOnUse" id="Polka_Dot_Pattern" height="69">
   <g id="svg_1">
    <polygon id="svg_2" fill="none" points="71.125,-1.896 2.125,-1.896 2.125,-70.896 71.125,-70.896   "/>
    <polygon id="svg_3" fill="#F6BB60" points="71.125,-1.896 2.125,-1.896 2.125,-70.896 71.125,-70.896   "/>
    <g id="svg_4">
     <path id="svg_5" fill="#FFFFFF" d="m61.772,-71.653c0.018,0.072 0.007,0.127 -0.026,0.19c-0.053,0.101 -0.112,0.062 -0.165,0.128c-0.05,0.062 -0.099,0.276 -0.079,0.362c-0.169,0.058 -0.01,0.227 -0.015,0.35c-0.002,0.05 -0.041,0.105 -0.045,0.161c-0.01,0.119 0.017,0.266 0.068,0.37c0.097,0.198 0.268,0.413 0.435,0.544c0.19,0.148 0.365,0.572 0.608,0.631c0.177,0.042 0.384,-0.104 0.543,-0.143c0.18,-0.043 0.397,0.01 0.571,-0.053c0.222,-0.079 0.127,-0.337 0.288,-0.45c0.104,-0.074 0.287,-0.01 0.406,-0.051c0.2,-0.069 0.339,-0.263 0.376,-0.46c0.016,-0.082 0.01,-0.145 0.039,-0.221c0.039,-0.103 0.111,-0.16 0.09,-0.293c-0.01,-0.062 -0.052,-0.12 -0.064,-0.187c-0.022,-0.114 0.002,-0.224 0,-0.337c-0.003,-0.2 0.017,-0.379 -0.078,-0.55c-0.38,-0.688 -1.236,-0.929 -1.975,-0.789c-0.18,0.034 -0.287,0.126 -0.442,0.207c-0.17,0.088 -0.139,0.166 -0.318,0.224c-0.081,0.026 -0.216,0.124 -0.215,0.224c0.001,0.115 0.005,0.051 0.012,0.169c-0.021,0.011 -0.021,-0.005 -0.03,-0.025"/>
     <path id="svg_6" fill="#FFFFFF" d="m54.105,-71.653c0.018,0.072 0.007,0.127 -0.026,0.19c-0.053,0.101 -0.112,0.062 -0.165,0.128c-0.05,0.062 -0.099,0.276 -0.079,0.362c-0.169,0.058 -0.01,0.227 -0.015,0.35c-0.002,0.05 -0.041,0.105 -0.045,0.161c-0.01,0.119 0.017,0.266 0.068,0.37c0.097,0.198 0.268,0.413 0.435,0.544c0.19,0.148 0.365,0.572 0.608,0.631c0.177,0.042 0.384,-0.104 0.543,-0.143c0.18,-0.043 0.397,0.01 0.571,-0.053c0.222,-0.079 0.127,-0.337 0.288,-0.45c0.104,-0.074 0.287,-0.01 0.406,-0.051c0.2,-0.069 0.339,-0.263 0.376,-0.46c0.016,-0.082 0.01,-0.145 0.039,-0.221c0.039,-0.103 0.111,-0.16 0.09,-0.293c-0.01,-0.062 -0.052,-0.12 -0.064,-0.187c-0.022,-0.114 0.002,-0.224 0,-0.337c-0.003,-0.2 0.017,-0.379 -0.078,-0.55c-0.38,-0.688 -1.236,-0.929 -1.975,-0.789c-0.18,0.034 -0.287,0.126 -0.442,0.207c-0.17,0.088 -0.139,0.166 -0.318,0.224c-0.081,0.026 -0.216,0.124 -0.215,0.224c0.001,0.115 0.005,0.051 0.012,0.169c-0.021,0.011 -0.021,-0.005 -0.03,-0.025"/>
     <path id="svg_7" fill="#FFFFFF" d="m46.439,-71.653c0.018,0.072 0.007,0.127 -0.026,0.19c-0.053,0.101 -0.112,0.062 -0.165,0.128c-0.05,0.062 -0.099,0.276 -0.079,0.362c-0.169,0.058 -0.01,0.227 -0.015,0.35c-0.002,0.05 -0.041,0.105 -0.045,0.161c-0.01,0.119 0.017,0.266 0.068,0.37c0.097,0.198 0.268,0.413 0.435,0.544c0.19,0.148 0.365,0.572 0.608,0.631c0.177,0.042 0.384,-0.104 0.543,-0.143c0.18,-0.043 0.397,0.01 0.571,-0.053c0.222,-0.079 0.127,-0.337 0.288,-0.45c0.104,-0.074 0.287,-0.01 0.406,-0.051c0.2,-0.069 0.339,-0.263 0.376,-0.46c0.016,-0.082 0.01,-0.145 0.039,-0.221c0.039,-0.103 0.111,-0.16 0.09,-0.293c-0.01,-0.062 -0.052,-0.12 -0.064,-0.187c-0.022,-0.114 0.002,-0.224 0,-0.337c-0.003,-0.2 0.017,-0.379 -0.078,-0.55c-0.38,-0.688 -1.236,-0.929 -1.975,-0.789c-0.18,0.034 -0.287,0.126 -0.442,0.207c-0.17,0.088 -0.139,0.166 -0.318,0.224c-0.081,0.026 -0.216,0.124 -0.215,0.224c0.001,0.115 0.005,0.051 0.012,0.169c-0.021,0.011 -0.021,-0.005 -0.03,-0.025"/>
     <path id="svg_8" fill="#FFFFFF" d="m38.772,-71.653c0.018,0.072 0.007,0.127 -0.026,0.19c-0.053,0.101 -0.112,0.062 -0.165,0.128c-0.05,0.062 -0.099,0.276 -0.079,0.362c-0.169,0.058 -0.01,0.227 -0.015,0.35c-0.002,0.05 -0.041,0.105 -0.045,0.161c-0.01,0.119 0.017,0.266 0.068,0.37c0.097,0.198 0.268,0.413 0.435,0.544c0.19,0.148 0.365,0.572 0.608,0.631c0.177,0.042 0.384,-0.104 0.543,-0.143c0.18,-0.043 0.397,0.01 0.571,-0.053c0.222,-0.079 0.127,-0.337 0.288,-0.45c0.104,-0.074 0.287,-0.01 0.406,-0.051c0.2,-0.069 0.339,-0.263 0.376,-0.46c0.016,-0.082 0.01,-0.145 0.039,-0.221c0.039,-0.103 0.111,-0.16 0.09,-0.293c-0.01,-0.062 -0.052,-0.12 -0.064,-0.187c-0.022,-0.114 0.002,-0.224 0,-0.337c-0.003,-0.2 0.017,-0.379 -0.078,-0.55c-0.38,-0.688 -1.236,-0.929 -1.975,-0.789c-0.18,0.034 -0.287,0.126 -0.442,0.207c-0.17,0.088 -0.139,0.166 -0.318,0.224c-0.081,0.026 -0.216,0.124 -0.215,0.224c0.001,0.115 0.005,0.051 0.012,0.169c-0.021,0.011 -0.021,-0.005 -0.03,-0.025"/>
     <path id="svg_9" fill="#FFFFFF" d="m31.105,-71.653c0.018,0.072 0.007,0.127 -0.026,0.19c-0.053,0.101 -0.112,0.062 -0.165,0.128c-0.05,0.062 -0.099,0.276 -0.079,0.362c-0.169,0.058 -0.01,0.227 -0.015,0.35c-0.002,0.05 -0.041,0.105 -0.045,0.161c-0.01,0.119 0.017,0.266 0.068,0.37c0.097,0.198 0.268,0.413 0.435,0.544c0.19,0.148 0.365,0.572 0.608,0.631c0.177,0.042 0.384,-0.104 0.543,-0.143c0.18,-0.043 0.397,0.01 0.571,-0.053c0.222,-0.079 0.127,-0.337 0.288,-0.45c0.104,-0.074 0.287,-0.01 0.406,-0.051c0.2,-0.069 0.339,-0.263 0.376,-0.46c0.016,-0.082 0.01,-0.145 0.039,-0.221c0.039,-0.103 0.111,-0.16 0.09,-0.293c-0.01,-0.062 -0.052,-0.12 -0.064,-0.187c-0.022,-0.114 0.002,-0.224 0,-0.337c-0.003,-0.2 0.017,-0.379 -0.078,-0.55c-0.38,-0.688 -1.236,-0.929 -1.975,-0.789c-0.18,0.034 -0.287,0.126 -0.442,0.207c-0.17,0.088 -0.139,0.166 -0.318,0.224c-0.081,0.026 -0.216,0.124 -0.215,0.224c0.001,0.115 0.005,0.051 0.012,0.169c-0.021,0.011 -0.021,-0.005 -0.03,-0.025"/>
     <path id="svg_10" fill="#FFFFFF" d="m23.439,-71.653c0.018,0.072 0.007,0.127 -0.026,0.19c-0.053,0.101 -0.112,0.062 -0.165,0.128c-0.05,0.062 -0.099,0.276 -0.079,0.362c-0.169,0.058 -0.01,0.227 -0.015,0.35c-0.002,0.05 -0.041,0.105 -0.045,0.161c-0.01,0.119 0.017,0.266 0.068,0.37c0.097,0.198 0.268,0.413 0.435,0.544c0.19,0.148 0.365,0.572 0.608,0.631c0.177,0.042 0.384,-0.104 0.543,-0.143c0.18,-0.043 0.397,0.01 0.571,-0.053c0.222,-0.079 0.127,-0.337 0.288,-0.45c0.104,-0.074 0.287,-0.01 0.406,-0.051c0.2,-0.069 0.339,-0.263 0.376,-0.46c0.016,-0.082 0.01,-0.145 0.039,-0.221c0.039,-0.103 0.111,-0.16 0.09,-0.293c-0.01,-0.062 -0.052,-0.12 -0.064,-0.187c-0.022,-0.114 0.002,-0.224 0,-0.337c-0.003,-0.2 0.017,-0.379 -0.078,-0.55c-0.38,-0.688 -1.236,-0.929 -1.975,-0.789c-0.18,0.034 -0.287,0.126 -0.442,0.207c-0.17,0.088 -0.139,0.166 -0.318,0.224c-0.081,0.026 -0.216,0.124 -0.215,0.224c0.001,0.115 0.005,0.051 0.012,0.169c-0.021,0.011 -0.021,-0.005 -0.03,-0.025"/>
     <path id="svg_11" fill="#FFFFFF" d="m15.772,-71.653c0.018,0.072 0.007,0.127 -0.026,0.19c-0.053,0.101 -0.112,0.062 -0.165,0.128c-0.05,0.062 -0.099,0.276 -0.079,0.362c-0.169,0.058 -0.01,0.227 -0.015,0.35c-0.002,0.05 -0.041,0.105 -0.045,0.161c-0.01,0.119 0.017,0.266 0.068,0.37c0.097,0.198 0.268,0.413 0.435,0.544c0.19,0.148 0.365,0.572 0.608,0.631c0.177,0.042 0.384,-0.104 0.543,-0.143c0.18,-0.043 0.397,0.01 0.571,-0.053c0.222,-0.079 0.127,-0.337 0.288,-0.45c0.104,-0.074 0.287,-0.01 0.406,-0.051c0.2,-0.069 0.339,-0.263 0.376,-0.46c0.016,-0.082 0.01,-0.145 0.039,-0.221c0.039,-0.103 0.111,-0.16 0.09,-0.293c-0.01,-0.062 -0.052,-0.12 -0.064,-0.187c-0.022,-0.114 0.002,-0.224 0,-0.337c-0.003,-0.2 0.017,-0.379 -0.078,-0.55c-0.38,-0.688 -1.236,-0.929 -1.975,-0.789c-0.18,0.034 -0.287,0.126 -0.442,0.207c-0.17,0.088 -0.139,0.166 -0.318,0.224c-0.081,0.026 -0.216,0.124 -0.215,0.224c0.001,0.115 0.005,0.051 0.012,0.169c-0.021,0.011 -0.021,-0.005 -0.03,-0.025"/>
     <path id="svg_12" fill="#FFFFFF" d="m8.105,-71.653c0.018,0.072 0.007,0.127 -0.026,0.19c-0.053,0.101 -0.112,0.062 -0.165,0.128c-0.05,0.062 -0.099,0.276 -0.079,0.362c-0.169,0.058 -0.01,0.227 -0.015,0.35c-0.002,0.05 -0.041,0.105 -0.045,0.161c-0.01,0.119 0.017,0.266 0.068,0.37c0.097,0.198 0.268,0.413 0.435,0.544c0.19,0.148 0.365,0.572 0.608,0.631c0.177,0.042 0.384,-0.104 0.543,-0.143c0.18,-0.043 0.397,0.01 0.571,-0.053c0.222,-0.079 0.127,-0.337 0.288,-0.45c0.104,-0.074 0.287,-0.01 0.406,-0.051c0.2,-0.069 0.339,-0.263 0.376,-0.46c0.016,-0.082 0.01,-0.145 0.039,-0.221c0.039,-0.103 0.111,-0.16 0.09,-0.293c-0.01,-0.062 -0.052,-0.12 -0.064,-0.187c-0.022,-0.114 0.002,-0.224 0,-0.337c-0.003,-0.2 0.017,-0.379 -0.078,-0.55c-0.38,-0.688 -1.236,-0.929 -1.975,-0.789c-0.18,0.034 -0.287,0.126 -0.442,0.207c-0.17,0.088 -0.139,0.166 -0.318,0.224c-0.081,0.026 -0.216,0.124 -0.215,0.224c0.001,0.115 0.005,0.051 0.012,0.169c-0.021,0.011 -0.021,-0.005 -0.03,-0.025"/>
     <path id="svg_13" fill="#FFFFFF" d="m0.439,-71.653c0.018,0.072 0.008,0.127 -0.026,0.19c-0.052,0.101 -0.113,0.063 -0.165,0.128c-0.051,0.062 -0.099,0.276 -0.079,0.362c-0.169,0.058 -0.01,0.227 -0.015,0.35c-0.002,0.05 -0.041,0.105 -0.045,0.161c-0.01,0.119 0.017,0.266 0.068,0.37c0.097,0.198 0.268,0.413 0.435,0.544c0.19,0.148 0.365,0.572 0.608,0.631c0.177,0.042 0.384,-0.104 0.543,-0.143c0.18,-0.043 0.397,0.01 0.571,-0.053c0.222,-0.079 0.127,-0.337 0.288,-0.45c0.104,-0.074 0.287,-0.01 0.406,-0.051c0.2,-0.07 0.339,-0.263 0.376,-0.46c0.016,-0.082 0.01,-0.145 0.039,-0.221c0.038,-0.103 0.111,-0.16 0.09,-0.293c-0.01,-0.062 -0.051,-0.12 -0.064,-0.187c-0.021,-0.114 0.002,-0.224 0,-0.337c-0.003,-0.2 0.017,-0.379 -0.078,-0.55c-0.38,-0.688 -1.236,-0.929 -1.975,-0.789c-0.18,0.034 -0.287,0.126 -0.442,0.207c-0.17,0.088 -0.139,0.166 -0.318,0.224c-0.081,0.026 -0.215,0.124 -0.215,0.224c0.002,0.115 0.005,0.051 0.012,0.169c-0.021,0.011 -0.021,-0.005 -0.03,-0.025"/>
    </g>
    <g id="svg_14">
     <path id="svg_15" fill="#FFFFFF" d="m69.439,-71.653c0.018,0.072 0.008,0.127 -0.026,0.19c-0.052,0.101 -0.113,0.062 -0.165,0.128c-0.051,0.062 -0.099,0.276 -0.079,0.362c-0.169,0.058 -0.01,0.227 -0.015,0.35c-0.002,0.05 -0.041,0.105 -0.045,0.161c-0.01,0.119 0.017,0.266 0.068,0.37c0.097,0.198 0.268,0.413 0.435,0.544c0.19,0.148 0.365,0.572 0.608,0.631c0.177,0.042 0.384,-0.104 0.543,-0.143c0.18,-0.043 0.397,0.01 0.571,-0.053c0.222,-0.079 0.127,-0.337 0.288,-0.45c0.104,-0.074 0.287,-0.01 0.406,-0.051c0.2,-0.07 0.339,-0.263 0.376,-0.46c0.016,-0.082 0.01,-0.145 0.039,-0.221c0.038,-0.103 0.111,-0.16 0.09,-0.293c-0.01,-0.062 -0.051,-0.12 -0.064,-0.187c-0.021,-0.114 0.002,-0.224 0,-0.337c-0.003,-0.2 0.017,-0.379 -0.078,-0.55c-0.38,-0.688 -1.236,-0.929 -1.975,-0.789c-0.18,0.034 -0.287,0.126 -0.442,0.207c-0.17,0.088 -0.139,0.166 -0.318,0.224c-0.081,0.026 -0.215,0.124 -0.215,0.224c0.002,0.115 0.005,0.051 0.012,0.169c-0.021,0.011 -0.021,-0.005 -0.03,-0.025"/>
    </g>
    <path id="svg_16" fill="#FFFFFF" d="m0.495,-71.653c0.018,0.072 0.008,0.127 -0.026,0.19c-0.052,0.101 -0.113,0.062 -0.165,0.128c-0.051,0.062 -0.099,0.276 -0.079,0.362c-0.169,0.058 -0.01,0.227 -0.015,0.35c-0.002,0.05 -0.041,0.105 -0.045,0.161c-0.01,0.119 0.017,0.266 0.068,0.37c0.097,0.198 0.268,0.413 0.435,0.544c0.19,0.148 0.365,0.572 0.608,0.631c0.177,0.042 0.384,-0.104 0.543,-0.143c0.18,-0.043 0.397,0.01 0.571,-0.053c0.222,-0.079 0.127,-0.337 0.288,-0.45c0.104,-0.074 0.287,-0.01 0.406,-0.051c0.2,-0.07 0.339,-0.263 0.376,-0.46c0.016,-0.082 0.01,-0.145 0.039,-0.221c0.038,-0.103 0.111,-0.16 0.09,-0.293c-0.01,-0.062 -0.051,-0.12 -0.064,-0.187c-0.021,-0.114 0.002,-0.224 0,-0.337c-0.003,-0.2 0.017,-0.379 -0.078,-0.55c-0.38,-0.688 -1.236,-0.929 -1.975,-0.789c-0.18,0.034 -0.287,0.126 -0.442,0.207c-0.17,0.088 -0.139,0.166 -0.318,0.224c-0.081,0.026 -0.215,0.124 -0.215,0.224c0.003,0.116 0.006,0.052 0.013,0.17c-0.021,0.011 -0.021,-0.005 -0.03,-0.025"/>
    <g id="svg_17">
     <g id="svg_18">
      <path id="svg_19" fill="#FFFFFF" d="m69.439,-64.001c0.018,0.072 0.007,0.127 -0.026,0.19c-0.053,0.101 -0.112,0.062 -0.165,0.128c-0.05,0.062 -0.099,0.276 -0.079,0.362c-0.169,0.058 -0.01,0.227 -0.015,0.35c-0.002,0.05 -0.041,0.105 -0.045,0.161c-0.01,0.119 0.017,0.266 0.068,0.37c0.097,0.198 0.268,0.413 0.435,0.544c0.19,0.148 0.365,0.572 0.608,0.631c0.177,0.042 0.384,-0.104 0.543,-0.143c0.18,-0.043 0.397,0.01 0.571,-0.053c0.222,-0.079 0.127,-0.337 0.288,-0.45c0.104,-0.074 0.287,-0.01 0.406,-0.051c0.2,-0.069 0.339,-0.263 0.376,-0.46c0.016,-0.082 0.01,-0.145 0.039,-0.221c0.039,-0.103 0.111,-0.16 0.09,-0.293c-0.01,-0.062 -0.052,-0.12 -0.064,-0.187c-0.022,-0.114 0.002,-0.224 0,-0.337c-0.003,-0.2 0.017,-0.379 -0.078,-0.55c-0.38,-0.688 -1.236,-0.929 -1.975,-0.789c-0.18,0.034 -0.287,0.126 -0.442,0.207c-0.17,0.088 -0.139,0.166 -0.318,0.224c-0.081,0.026 -0.216,0.124 -0.215,0.224c0.001,0.115 0.005,0.051 0.012,0.169c-0.021,0.011 -0.021,-0.005 -0.03,-0.025"/>
      <path id="svg_20" fill="#FFFFFF" d="m61.778,-64.001c0.018,0.072 0.007,0.127 -0.026,0.19c-0.053,0.101 -0.112,0.062 -0.165,0.128c-0.05,0.062 -0.099,0.276 -0.079,0.362c-0.169,0.058 -0.009,0.227 -0.015,0.35c-0.002,0.05 -0.041,0.105 -0.045,0.161c-0.01,0.119 0.017,0.266 0.068,0.37c0.097,0.198 0.268,0.413 0.435,0.544c0.19,0.148 0.365,0.572 0.608,0.631c0.177,0.042 0.384,-0.104 0.543,-0.143c0.18,-0.043 0.397,0.01 0.571,-0.053c0.222,-0.079 0.127,-0.337 0.288,-0.45c0.104,-0.074 0.287,-0.01 0.406,-0.051c0.2,-0.069 0.339,-0.263 0.376,-0.46c0.016,-0.082 0.01,-0.145 0.039,-0.221c0.039,-0.103 0.111,-0.16 0.09,-0.293c-0.01,-0.062 -0.052,-0.12 -0.064,-0.187c-0.022,-0.114 0.002,-0.224 0,-0.337c-0.003,-0.2 0.017,-0.379 -0.078,-0.55c-0.38,-0.688 -1.236,-0.929 -1.975,-0.789c-0.18,0.034 -0.287,0.126 -0.442,0.207c-0.17,0.088 -0.139,0.166 -0.318,0.224c-0.081,0.026 -0.216,0.124 -0.215,0.224c0.001,0.115 0.005,0.051 0.012,0.169c-0.021,0.011 -0.021,-0.005 -0.03,-0.025"/>
      <path id="svg_21" fill="#FFFFFF" d="m54.118,-64.001c0.018,0.072 0.007,0.127 -0.026,0.19c-0.053,0.101 -0.112,0.062 -0.165,0.128c-0.05,0.062 -0.099,0.276 -0.079,0.362c-0.169,0.058 -0.009,0.227 -0.015,0.35c-0.002,0.05 -0.041,0.105 -0.045,0.161c-0.01,0.119 0.017,0.266 0.068,0.37c0.097,0.198 0.268,0.413 0.435,0.544c0.19,0.148 0.365,0.572 0.608,0.631c0.177,0.042 0.384,-0.104 0.543,-0.143c0.18,-0.043 0.397,0.01 0.571,-0.053c0.222,-0.079 0.127,-0.337 0.288,-0.45c0.104,-0.074 0.287,-0.01 0.406,-0.051c0.2,-0.069 0.339,-0.263 0.376,-0.46c0.016,-0.082 0.01,-0.145 0.039,-0.221c0.039,-0.103 0.111,-0.16 0.09,-0.293c-0.01,-0.062 -0.052,-0.12 -0.064,-0.187c-0.022,-0.114 0.002,-0.224 0,-0.337c-0.003,-0.2 0.017,-0.379 -0.078,-0.55c-0.38,-0.688 -1.236,-0.929 -1.975,-0.789c-0.18,0.034 -0.287,0.126 -0.442,0.207c-0.17,0.088 -0.139,0.166 -0.318,0.224c-0.081,0.026 -0.216,0.124 -0.215,0.224c0.001,0.115 0.005,0.051 0.012,0.169c-0.021,0.011 -0.021,-0.005 -0.03,-0.025"/>
      <path id="svg_22" fill="#FFFFFF" d="m46.458,-64.001c0.018,0.072 0.007,0.127 -0.026,0.19c-0.053,0.101 -0.112,0.062 -0.165,0.128c-0.05,0.062 -0.099,0.276 -0.079,0.362c-0.169,0.058 -0.009,0.227 -0.015,0.35c-0.002,0.05 -0.041,0.105 -0.045,0.161c-0.01,0.119 0.017,0.266 0.068,0.37c0.097,0.198 0.268,0.413 0.435,0.544c0.19,0.148 0.365,0.572 0.608,0.631c0.177,0.042 0.384,-0.104 0.543,-0.143c0.18,-0.043 0.397,0.01 0.571,-0.053c0.222,-0.079 0.127,-0.337 0.288,-0.45c0.104,-0.074 0.287,-0.01 0.406,-0.051c0.2,-0.069 0.339,-0.263 0.376,-0.46c0.016,-0.082 0.01,-0.145 0.039,-0.221c0.039,-0.103 0.111,-0.16 0.09,-0.293c-0.01,-0.062 -0.052,-0.12 -0.064,-0.187c-0.022,-0.114 0.002,-0.224 0,-0.337c-0.003,-0.2 0.017,-0.379 -0.078,-0.55c-0.38,-0.688 -1.236,-0.929 -1.975,-0.789c-0.18,0.034 -0.287,0.126 -0.442,0.207c-0.17,0.088 -0.139,0.166 -0.318,0.224c-0.081,0.026 -0.216,0.124 -0.215,0.224c0.001,0.115 0.005,0.051 0.012,0.169c-0.021,0.011 -0.021,-0.005 -0.03,-0.025"/>
      <path id="svg_23" fill="#FFFFFF" d="m38.797,-64.001c0.018,0.072 0.007,0.127 -0.026,0.19c-0.053,0.101 -0.112,0.062 -0.165,0.128c-0.05,0.062 -0.099,0.276 -0.079,0.362c-0.169,0.058 -0.009,0.227 -0.015,0.35c-0.002,0.05 -0.041,0.105 -0.045,0.161c-0.01,0.119 0.017,0.266 0.068,0.37c0.097,0.198 0.268,0.413 0.435,0.544c0.19,0.148 0.365,0.572 0.608,0.631c0.177,0.042 0.384,-0.104 0.543,-0.143c0.18,-0.043 0.397,0.01 0.571,-0.053c0.222,-0.079 0.127,-0.337 0.288,-0.45c0.104,-0.074 0.287,-0.01 0.406,-0.051c0.2,-0.069 0.339,-0.263 0.376,-0.46c0.016,-0.082 0.01,-0.145 0.039,-0.221c0.039,-0.103 0.111,-0.16 0.09,-0.293c-0.01,-0.062 -0.052,-0.12 -0.064,-0.187c-0.022,-0.114 0.002,-0.224 0,-0.337c-0.003,-0.2 0.017,-0.379 -0.078,-0.55c-0.38,-0.688 -1.236,-0.929 -1.975,-0.789c-0.18,0.034 -0.287,0.126 -0.442,0.207c-0.17,0.088 -0.139,0.166 -0.318,0.224c-0.081,0.026 -0.216,0.124 -0.215,0.224c0.001,0.115 0.005,0.051 0.012,0.169c-0.021,0.011 -0.021,-0.005 -0.03,-0.025"/>
      <path id="svg_24" fill="#FFFFFF" d="m31.137,-64.001c0.018,0.072 0.007,0.127 -0.026,0.19c-0.053,0.101 -0.112,0.062 -0.165,0.128c-0.05,0.062 -0.099,0.276 -0.079,0.362c-0.169,0.058 -0.009,0.227 -0.015,0.35c-0.002,0.05 -0.041,0.105 -0.045,0.161c-0.01,0.119 0.017,0.266 0.068,0.37c0.097,0.198 0.268,0.413 0.435,0.544c0.19,0.148 0.365,0.572 0.608,0.631c0.177,0.042 0.384,-0.104 0.543,-0.143c0.18,-0.043 0.397,0.01 0.571,-0.053c0.222,-0.079 0.127,-0.337 0.288,-0.45c0.104,-0.074 0.287,-0.01 0.406,-0.051c0.2,-0.069 0.339,-0.263 0.376,-0.46c0.016,-0.082 0.01,-0.145 0.039,-0.221c0.039,-0.103 0.111,-0.16 0.09,-0.293c-0.01,-0.062 -0.052,-0.12 -0.064,-0.187c-0.022,-0.114 0.002,-0.224 0,-0.337c-0.003,-0.2 0.017,-0.379 -0.078,-0.55c-0.38,-0.688 -1.236,-0.929 -1.975,-0.789c-0.18,0.034 -0.287,0.126 -0.442,0.207c-0.17,0.088 -0.139,0.166 -0.318,0.224c-0.081,0.026 -0.216,0.124 -0.215,0.224c0.001,0.115 0.005,0.051 0.012,0.169c-0.021,0.011 -0.021,-0.005 -0.03,-0.025"/>
      <path id="svg_25" fill="#FFFFFF" d="m23.477,-64.001c0.018,0.072 0.007,0.127 -0.026,0.19c-0.053,0.101 -0.112,0.062 -0.165,0.128c-0.05,0.062 -0.099,0.276 -0.079,0.362c-0.169,0.058 -0.009,0.227 -0.015,0.35c-0.002,0.05 -0.041,0.105 -0.045,0.161c-0.01,0.119 0.017,0.266 0.068,0.37c0.097,0.198 0.268,0.413 0.435,0.544c0.19,0.148 0.365,0.572 0.608,0.631c0.177,0.042 0.384,-0.104 0.543,-0.143c0.18,-0.043 0.397,0.01 0.571,-0.053c0.222,-0.079 0.127,-0.337 0.288,-0.45c0.104,-0.074 0.287,-0.01 0.406,-0.051c0.2,-0.069 0.339,-0.263 0.376,-0.46c0.016,-0.082 0.01,-0.145 0.039,-0.221c0.039,-0.103 0.111,-0.16 0.09,-0.293c-0.01,-0.062 -0.052,-0.12 -0.064,-0.187c-0.022,-0.114 0.002,-0.224 0,-0.337c-0.003,-0.2 0.017,-0.379 -0.078,-0.55c-0.38,-0.688 -1.236,-0.929 -1.975,-0.789c-0.18,0.034 -0.287,0.126 -0.442,0.207c-0.17,0.088 -0.139,0.166 -0.318,0.224c-0.081,0.026 -0.216,0.124 -0.215,0.224c0.001,0.115 0.005,0.051 0.012,0.169c-0.021,0.011 -0.021,-0.005 -0.03,-0.025"/>
      <path id="svg_26" fill="#FFFFFF" d="m15.816,-64.001c0.018,0.072 0.007,0.127 -0.026,0.19c-0.053,0.101 -0.112,0.062 -0.165,0.128c-0.05,0.062 -0.099,0.276 -0.079,0.362c-0.169,0.058 -0.009,0.227 -0.015,0.35c-0.002,0.05 -0.041,0.105 -0.045,0.161c-0.01,0.119 0.017,0.266 0.068,0.37c0.097,0.198 0.268,0.413 0.435,0.544c0.19,0.148 0.365,0.572 0.608,0.631c0.177,0.042 0.384,-0.104 0.543,-0.143c0.18,-0.043 0.397,0.01 0.571,-0.053c0.222,-0.079 0.127,-0.337 0.288,-0.45c0.104,-0.074 0.287,-0.01 0.406,-0.051c0.2,-0.069 0.339,-0.263 0.376,-0.46c0.016,-0.082 0.01,-0.145 0.039,-0.221c0.039,-0.103 0.111,-0.16 0.09,-0.293c-0.01,-0.062 -0.052,-0.12 -0.064,-0.187c-0.022,-0.114 0.002,-0.224 0,-0.337c-0.003,-0.2 0.017,-0.379 -0.078,-0.55c-0.38,-0.688 -1.236,-0.929 -1.975,-0.789c-0.18,0.034 -0.287,0.126 -0.442,0.207c-0.17,0.088 -0.139,0.166 -0.318,0.224c-0.081,0.026 -0.216,0.124 -0.215,0.224c0.001,0.115 0.005,0.051 0.012,0.169c-0.021,0.011 -0.021,-0.005 -0.03,-0.025"/>
      <path id="svg_27" fill="#FFFFFF" d="m8.156,-64.001c0.018,0.072 0.007,0.127 -0.026,0.19c-0.053,0.101 -0.112,0.062 -0.165,0.128c-0.05,0.062 -0.099,0.276 -0.079,0.362c-0.169,0.058 -0.009,0.227 -0.015,0.35c-0.002,0.05 -0.041,0.105 -0.045,0.161c-0.01,0.119 0.017,0.266 0.068,0.37c0.097,0.198 0.268,0.413 0.435,0.544c0.19,0.148 0.365,0.572 0.608,0.631c0.177,0.042 0.384,-0.104 0.543,-0.143c0.18,-0.043 0.397,0.01 0.571,-0.053c0.222,-0.079 0.127,-0.337 0.288,-0.45c0.104,-0.074 0.287,-0.01 0.406,-0.051c0.2,-0.069 0.339,-0.263 0.376,-0.46c0.016,-0.082 0.01,-0.145 0.039,-0.221c0.039,-0.103 0.111,-0.16 0.09,-0.293c-0.01,-0.062 -0.052,-0.12 -0.064,-0.187c-0.022,-0.114 0.002,-0.224 0,-0.337c-0.003,-0.2 0.017,-0.379 -0.078,-0.55c-0.38,-0.688 -1.236,-0.929 -1.975,-0.789c-0.18,0.034 -0.287,0.126 -0.442,0.207c-0.17,0.088 -0.139,0.166 -0.318,0.224c-0.081,0.026 -0.216,0.124 -0.215,0.224c0.001,0.115 0.005,0.051 0.012,0.169c-0.021,0.011 -0.021,-0.005 -0.03,-0.025"/>
      <path id="svg_28" fill="#FFFFFF" d="m0.495,-64.001c0.018,0.072 0.007,0.127 -0.026,0.19c-0.053,0.101 -0.112,0.062 -0.165,0.128c-0.05,0.062 -0.099,0.276 -0.079,0.362c-0.169,0.058 -0.01,0.227 -0.015,0.35c-0.002,0.05 -0.041,0.105 -0.045,0.161c-0.01,0.119 0.017,0.266 0.068,0.37c0.097,0.198 0.268,0.413 0.435,0.544c0.19,0.148 0.365,0.572 0.608,0.631c0.177,0.042 0.384,-0.104 0.543,-0.143c0.181,-0.042 0.398,0.011 0.572,-0.052c0.222,-0.079 0.127,-0.337 0.288,-0.45c0.104,-0.074 0.287,-0.01 0.406,-0.051c0.2,-0.069 0.339,-0.263 0.376,-0.46c0.016,-0.082 0.01,-0.145 0.039,-0.221c0.039,-0.103 0.111,-0.16 0.09,-0.293c-0.01,-0.062 -0.052,-0.12 -0.064,-0.187c-0.022,-0.114 0.002,-0.224 0,-0.337c-0.003,-0.2 0.017,-0.379 -0.078,-0.55c-0.38,-0.688 -1.236,-0.929 -1.975,-0.789c-0.18,0.034 -0.287,0.126 -0.442,0.207c-0.17,0.088 -0.139,0.166 -0.318,0.224c-0.081,0.026 -0.216,0.124 -0.215,0.224c0.001,0.115 0.005,0.051 0.012,0.169c-0.021,0.011 -0.021,-0.005 -0.03,-0.025"/>
     </g>
     <g id="svg_29">
      <path id="svg_30" fill="#FFFFFF" d="m69.439,-56.348c0.018,0.072 0.007,0.127 -0.026,0.19c-0.053,0.101 -0.112,0.062 -0.165,0.128c-0.05,0.062 -0.099,0.276 -0.079,0.362c-0.169,0.058 -0.01,0.227 -0.015,0.35c-0.002,0.05 -0.041,0.105 -0.045,0.161c-0.01,0.119 0.017,0.266 0.068,0.37c0.097,0.198 0.268,0.413 0.435,0.544c0.19,0.148 0.365,0.572 0.608,0.631c0.177,0.042 0.384,-0.104 0.543,-0.143c0.18,-0.043 0.397,0.01 0.571,-0.053c0.222,-0.079 0.127,-0.337 0.288,-0.45c0.104,-0.074 0.287,-0.01 0.406,-0.051c0.2,-0.069 0.339,-0.263 0.376,-0.46c0.016,-0.082 0.01,-0.145 0.039,-0.221c0.039,-0.103 0.111,-0.16 0.09,-0.293c-0.01,-0.062 -0.052,-0.12 -0.064,-0.187c-0.022,-0.114 0.002,-0.224 0,-0.337c-0.003,-0.2 0.017,-0.379 -0.078,-0.55c-0.38,-0.688 -1.236,-0.929 -1.975,-0.789c-0.18,0.034 -0.287,0.126 -0.442,0.207c-0.17,0.088 -0.139,0.166 -0.318,0.224c-0.081,0.026 -0.216,0.124 -0.215,0.224c0.001,0.115 0.005,0.051 0.012,0.169c-0.021,0.011 -0.021,-0.005 -0.03,-0.025"/>
      <path id="svg_31" fill="#FFFFFF" d="m61.778,-56.348c0.018,0.072 0.007,0.127 -0.026,0.19c-0.053,0.101 -0.112,0.062 -0.165,0.128c-0.05,0.062 -0.099,0.276 -0.079,0.362c-0.169,0.058 -0.009,0.227 -0.015,0.35c-0.002,0.05 -0.041,0.105 -0.045,0.161c-0.01,0.119 0.017,0.266 0.068,0.37c0.097,0.198 0.268,0.413 0.435,0.544c0.19,0.148 0.365,0.572 0.608,0.631c0.177,0.042 0.384,-0.104 0.543,-0.143c0.18,-0.043 0.397,0.01 0.571,-0.053c0.222,-0.079 0.127,-0.337 0.288,-0.45c0.104,-0.074 0.287,-0.01 0.406,-0.051c0.2,-0.069 0.339,-0.263 0.376,-0.46c0.016,-0.082 0.01,-0.145 0.039,-0.221c0.039,-0.103 0.111,-0.16 0.09,-0.293c-0.01,-0.062 -0.052,-0.12 -0.064,-0.187c-0.022,-0.114 0.002,-0.224 0,-0.337c-0.003,-0.2 0.017,-0.379 -0.078,-0.55c-0.38,-0.688 -1.236,-0.929 -1.975,-0.789c-0.18,0.034 -0.287,0.126 -0.442,0.207c-0.17,0.088 -0.139,0.166 -0.318,0.224c-0.081,0.026 -0.216,0.124 -0.215,0.224c0.001,0.115 0.005,0.051 0.012,0.169c-0.021,0.011 -0.021,-0.005 -0.03,-0.025"/>
      <path id="svg_32" fill="#FFFFFF" d="m54.118,-56.348c0.018,0.072 0.007,0.127 -0.026,0.19c-0.053,0.101 -0.112,0.062 -0.165,0.128c-0.05,0.062 -0.099,0.276 -0.079,0.362c-0.169,0.058 -0.009,0.227 -0.015,0.35c-0.002,0.05 -0.041,0.105 -0.045,0.161c-0.01,0.119 0.017,0.266 0.068,0.37c0.097,0.198 0.268,0.413 0.435,0.544c0.19,0.148 0.365,0.572 0.608,0.631c0.177,0.042 0.384,-0.104 0.543,-0.143c0.18,-0.043 0.397,0.01 0.571,-0.053c0.222,-0.079 0.127,-0.337 0.288,-0.45c0.104,-0.074 0.287,-0.01 0.406,-0.051c0.2,-0.069 0.339,-0.263 0.376,-0.46c0.016,-0.082 0.01,-0.145 0.039,-0.221c0.039,-0.103 0.111,-0.16 0.09,-0.293c-0.01,-0.062 -0.052,-0.12 -0.064,-0.187c-0.022,-0.114 0.002,-0.224 0,-0.337c-0.003,-0.2 0.017,-0.379 -0.078,-0.55c-0.38,-0.688 -1.236,-0.929 -1.975,-0.789c-0.18,0.034 -0.287,0.126 -0.442,0.207c-0.17,0.088 -0.139,0.166 -0.318,0.224c-0.081,0.026 -0.216,0.124 -0.215,0.224c0.001,0.115 0.005,0.051 0.012,0.169c-0.021,0.011 -0.021,-0.005 -0.03,-0.025"/>
      <path id="svg_33" fill="#FFFFFF" d="m46.458,-56.348c0.018,0.072 0.007,0.127 -0.026,0.19c-0.053,0.101 -0.112,0.062 -0.165,0.128c-0.05,0.062 -0.099,0.276 -0.079,0.362c-0.169,0.058 -0.009,0.227 -0.015,0.35c-0.002,0.05 -0.041,0.105 -0.045,0.161c-0.01,0.119 0.017,0.266 0.068,0.37c0.097,0.198 0.268,0.413 0.435,0.544c0.19,0.148 0.365,0.572 0.608,0.631c0.177,0.042 0.384,-0.104 0.543,-0.143c0.18,-0.043 0.397,0.01 0.571,-0.053c0.222,-0.079 0.127,-0.337 0.288,-0.45c0.104,-0.074 0.287,-0.01 0.406,-0.051c0.2,-0.069 0.339,-0.263 0.376,-0.46c0.016,-0.082 0.01,-0.145 0.039,-0.221c0.039,-0.103 0.111,-0.16 0.09,-0.293c-0.01,-0.062 -0.052,-0.12 -0.064,-0.187c-0.022,-0.114 0.002,-0.224 0,-0.337c-0.003,-0.2 0.017,-0.379 -0.078,-0.55c-0.38,-0.688 -1.236,-0.929 -1.975,-0.789c-0.18,0.034 -0.287,0.126 -0.442,0.207c-0.17,0.088 -0.139,0.166 -0.318,0.224c-0.081,0.026 -0.216,0.124 -0.215,0.224c0.001,0.115 0.005,0.051 0.012,0.169c-0.021,0.011 -0.021,-0.005 -0.03,-0.025"/>
      <path id="svg_34" fill="#FFFFFF" d="m38.797,-56.348c0.018,0.072 0.007,0.127 -0.026,0.19c-0.053,0.101 -0.112,0.062 -0.165,0.128c-0.05,0.062 -0.099,0.276 -0.079,0.362c-0.169,0.058 -0.009,0.227 -0.015,0.35c-0.002,0.05 -0.041,0.105 -0.045,0.161c-0.01,0.119 0.017,0.266 0.068,0.37c0.097,0.198 0.268,0.413 0.435,0.544c0.19,0.148 0.365,0.572 0.608,0.631c0.177,0.042 0.384,-0.104 0.543,-0.143c0.18,-0.043 0.397,0.01 0.571,-0.053c0.222,-0.079 0.127,-0.337 0.288,-0.45c0.104,-0.074 0.287,-0.01 0.406,-0.051c0.2,-0.069 0.339,-0.263 0.376,-0.46c0.016,-0.082 0.01,-0.145 0.039,-0.221c0.039,-0.103 0.111,-0.16 0.09,-0.293c-0.01,-0.062 -0.052,-0.12 -0.064,-0.187c-0.022,-0.114 0.002,-0.224 0,-0.337c-0.003,-0.2 0.017,-0.379 -0.078,-0.55c-0.38,-0.688 -1.236,-0.929 -1.975,-0.789c-0.18,0.034 -0.287,0.126 -0.442,0.207c-0.17,0.088 -0.139,0.166 -0.318,0.224c-0.081,0.026 -0.216,0.124 -0.215,0.224c0.001,0.115 0.005,0.051 0.012,0.169c-0.021,0.011 -0.021,-0.005 -0.03,-0.025"/>
      <path id="svg_35" fill="#FFFFFF" d="m31.137,-56.348c0.018,0.072 0.007,0.127 -0.026,0.19c-0.053,0.101 -0.112,0.062 -0.165,0.128c-0.05,0.062 -0.099,0.276 -0.079,0.362c-0.169,0.058 -0.009,0.227 -0.015,0.35c-0.002,0.05 -0.041,0.105 -0.045,0.161c-0.01,0.119 0.017,0.266 0.068,0.37c0.097,0.198 0.268,0.413 0.435,0.544c0.19,0.148 0.365,0.572 0.608,0.631c0.177,0.042 0.384,-0.104 0.543,-0.143c0.18,-0.043 0.397,0.01 0.571,-0.053c0.222,-0.079 0.127,-0.337 0.288,-0.45c0.104,-0.074 0.287,-0.01 0.406,-0.051c0.2,-0.069 0.339,-0.263 0.376,-0.46c0.016,-0.082 0.01,-0.145 0.039,-0.221c0.039,-0.103 0.111,-0.16 0.09,-0.293c-0.01,-0.062 -0.052,-0.12 -0.064,-0.187c-0.022,-0.114 0.002,-0.224 0,-0.337c-0.003,-0.2 0.017,-0.379 -0.078,-0.55c-0.38,-0.688 -1.236,-0.929 -1.975,-0.789c-0.18,0.034 -0.287,0.126 -0.442,0.207c-0.17,0.088 -0.139,0.166 -0.318,0.224c-0.081,0.026 -0.216,0.124 -0.215,0.224c0.001,0.115 0.005,0.051 0.012,0.169c-0.021,0.011 -0.021,-0.005 -0.03,-0.025"/>
      <path id="svg_36" fill="#FFFFFF" d="m23.477,-56.348c0.018,0.072 0.007,0.127 -0.026,0.19c-0.053,0.101 -0.112,0.062 -0.165,0.128c-0.05,0.062 -0.099,0.276 -0.079,0.362c-0.169,0.058 -0.009,0.227 -0.015,0.35c-0.002,0.05 -0.041,0.105 -0.045,0.161c-0.01,0.119 0.017,0.266 0.068,0.37c0.097,0.198 0.268,0.413 0.435,0.544c0.19,0.148 0.365,0.572 0.608,0.631c0.177,0.042 0.384,-0.104 0.543,-0.143c0.18,-0.043 0.397,0.01 0.571,-0.053c0.222,-0.079 0.127,-0.337 0.288,-0.45c0.104,-0.074 0.287,-0.01 0.406,-0.051c0.2,-0.069 0.339,-0.263 0.376,-0.46c0.016,-0.082 0.01,-0.145 0.039,-0.221c0.039,-0.103 0.111,-0.16 0.09,-0.293c-0.01,-0.062 -0.052,-0.12 -0.064,-0.187c-0.022,-0.114 0.002,-0.224 0,-0.337c-0.003,-0.2 0.017,-0.379 -0.078,-0.55c-0.38,-0.688 -1.236,-0.929 -1.975,-0.789c-0.18,0.034 -0.287,0.126 -0.442,0.207c-0.17,0.088 -0.139,0.166 -0.318,0.224c-0.081,0.026 -0.216,0.124 -0.215,0.224c0.001,0.115 0.005,0.051 0.012,0.169c-0.021,0.011 -0.021,-0.005 -0.03,-0.025"/>
      <path id="svg_37" fill="#FFFFFF" d="m15.816,-56.348c0.018,0.072 0.007,0.127 -0.026,0.19c-0.053,0.101 -0.112,0.062 -0.165,0.128c-0.05,0.062 -0.099,0.276 -0.079,0.362c-0.169,0.058 -0.009,0.227 -0.015,0.35c-0.002,0.05 -0.041,0.105 -0.045,0.161c-0.01,0.119 0.017,0.266 0.068,0.37c0.097,0.198 0.268,0.413 0.435,0.544c0.19,0.148 0.365,0.572 0.608,0.631c0.177,0.042 0.384,-0.104 0.543,-0.143c0.18,-0.043 0.397,0.01 0.571,-0.053c0.222,-0.079 0.127,-0.337 0.288,-0.45c0.104,-0.074 0.287,-0.01 0.406,-0.051c0.2,-0.069 0.339,-0.263 0.376,-0.46c0.016,-0.082 0.01,-0.145 0.039,-0.221c0.039,-0.103 0.111,-0.16 0.09,-0.293c-0.01,-0.062 -0.052,-0.12 -0.064,-0.187c-0.022,-0.114 0.002,-0.224 0,-0.337c-0.003,-0.2 0.017,-0.379 -0.078,-0.55c-0.38,-0.688 -1.236,-0.929 -1.975,-0.789c-0.18,0.034 -0.287,0.126 -0.442,0.207c-0.17,0.088 -0.139,0.166 -0.318,0.224c-0.081,0.026 -0.216,0.124 -0.215,0.224c0.001,0.115 0.005,0.051 0.012,0.169c-0.021,0.011 -0.021,-0.005 -0.03,-0.025"/>
      <path id="svg_38" fill="#FFFFFF" d="m8.156,-56.348c0.018,0.072 0.007,0.127 -0.026,0.19c-0.053,0.101 -0.112,0.062 -0.165,0.128c-0.05,0.062 -0.099,0.276 -0.079,0.362c-0.169,0.058 -0.009,0.227 -0.015,0.35c-0.002,0.05 -0.041,0.105 -0.045,0.161c-0.01,0.119 0.017,0.266 0.068,0.37c0.097,0.198 0.268,0.413 0.435,0.544c0.19,0.148 0.365,0.572 0.608,0.631c0.177,0.042 0.384,-0.104 0.543,-0.143c0.18,-0.043 0.397,0.01 0.571,-0.053c0.222,-0.079 0.127,-0.337 0.288,-0.45c0.104,-0.074 0.287,-0.01 0.406,-0.051c0.2,-0.069 0.339,-0.263 0.376,-0.46c0.016,-0.082 0.01,-0.145 0.039,-0.221c0.039,-0.103 0.111,-0.16 0.09,-0.293c-0.01,-0.062 -0.052,-0.12 -0.064,-0.187c-0.022,-0.114 0.002,-0.224 0,-0.337c-0.003,-0.2 0.017,-0.379 -0.078,-0.55c-0.38,-0.688 -1.236,-0.929 -1.975,-0.789c-0.18,0.034 -0.287,0.126 -0.442,0.207c-0.17,0.088 -0.139,0.166 -0.318,0.224c-0.081,0.026 -0.216,0.124 -0.215,0.224c0.001,0.115 0.005,0.051 0.012,0.169c-0.021,0.011 -0.021,-0.005 -0.03,-0.025"/>
      <path id="svg_39" fill="#FFFFFF" d="m0.495,-56.348c0.018,0.072 0.007,0.127 -0.026,0.19c-0.053,0.101 -0.112,0.062 -0.165,0.128c-0.05,0.062 -0.099,0.276 -0.079,0.362c-0.169,0.058 -0.01,0.227 -0.015,0.35c-0.002,0.05 -0.041,0.105 -0.045,0.161c-0.01,0.119 0.017,0.266 0.068,0.37c0.097,0.198 0.268,0.413 0.435,0.544c0.19,0.148 0.365,0.572 0.608,0.631c0.177,0.042 0.384,-0.104 0.543,-0.143c0.18,-0.043 0.397,0.01 0.571,-0.053c0.222,-0.079 0.127,-0.337 0.288,-0.45c0.104,-0.074 0.287,-0.01 0.406,-0.051c0.2,-0.069 0.339,-0.263 0.376,-0.46c0.016,-0.082 0.01,-0.145 0.039,-0.221c0.039,-0.103 0.111,-0.16 0.09,-0.293c-0.01,-0.062 -0.052,-0.12 -0.064,-0.187c-0.022,-0.114 0.002,-0.224 0,-0.337c-0.003,-0.2 0.017,-0.379 -0.078,-0.55c-0.38,-0.688 -1.236,-0.929 -1.975,-0.789c-0.18,0.034 -0.287,0.126 -0.442,0.207c-0.17,0.088 -0.139,0.166 -0.318,0.224c-0.081,0.026 -0.216,0.124 -0.215,0.224c0.003,0.117 0.006,0.053 0.013,0.171c-0.021,0.011 -0.021,-0.005 -0.03,-0.025"/>
     </g>
     <g id="svg_40">
      <path id="svg_41" fill="#FFFFFF" d="m69.439,-48.695c0.018,0.072 0.007,0.127 -0.026,0.19c-0.053,0.101 -0.112,0.062 -0.165,0.128c-0.05,0.062 -0.099,0.276 -0.079,0.362c-0.169,0.058 -0.01,0.227 -0.015,0.35c-0.002,0.05 -0.041,0.105 -0.045,0.161c-0.01,0.119 0.017,0.266 0.068,0.37c0.097,0.198 0.268,0.413 0.435,0.544c0.19,0.148 0.365,0.572 0.608,0.631c0.177,0.042 0.384,-0.104 0.543,-0.143c0.18,-0.043 0.397,0.01 0.571,-0.053c0.222,-0.079 0.127,-0.337 0.288,-0.45c0.104,-0.074 0.287,-0.01 0.406,-0.051c0.2,-0.069 0.339,-0.263 0.376,-0.46c0.016,-0.082 0.01,-0.145 0.039,-0.221c0.039,-0.103 0.111,-0.16 0.09,-0.293c-0.01,-0.062 -0.052,-0.12 -0.064,-0.187c-0.022,-0.114 0.002,-0.224 0,-0.337c-0.003,-0.2 0.017,-0.379 -0.078,-0.55c-0.38,-0.688 -1.236,-0.929 -1.975,-0.789c-0.18,0.034 -0.287,0.126 -0.442,0.207c-0.17,0.088 -0.139,0.166 -0.318,0.224c-0.081,0.026 -0.216,0.124 -0.215,0.224c0.001,0.115 0.005,0.051 0.012,0.169c-0.021,0.011 -0.021,-0.005 -0.03,-0.025"/>
      <path id="svg_42" fill="#FFFFFF" d="m61.778,-48.695c0.018,0.072 0.007,0.127 -0.026,0.19c-0.053,0.101 -0.112,0.062 -0.165,0.128c-0.05,0.062 -0.099,0.276 -0.079,0.362c-0.169,0.058 -0.009,0.227 -0.015,0.35c-0.002,0.05 -0.041,0.105 -0.045,0.161c-0.01,0.119 0.017,0.266 0.068,0.37c0.097,0.198 0.268,0.413 0.435,0.544c0.19,0.148 0.365,0.572 0.608,0.631c0.177,0.042 0.384,-0.104 0.543,-0.143c0.18,-0.043 0.397,0.01 0.571,-0.053c0.222,-0.079 0.127,-0.337 0.288,-0.45c0.104,-0.074 0.287,-0.01 0.406,-0.051c0.2,-0.069 0.339,-0.263 0.376,-0.46c0.016,-0.082 0.01,-0.145 0.039,-0.221c0.039,-0.103 0.111,-0.16 0.09,-0.293c-0.01,-0.062 -0.052,-0.12 -0.064,-0.187c-0.022,-0.114 0.002,-0.224 0,-0.337c-0.003,-0.2 0.017,-0.379 -0.078,-0.55c-0.38,-0.688 -1.236,-0.929 -1.975,-0.789c-0.18,0.034 -0.287,0.126 -0.442,0.207c-0.17,0.088 -0.139,0.166 -0.318,0.224c-0.081,0.026 -0.216,0.124 -0.215,0.224c0.001,0.115 0.005,0.051 0.012,0.169c-0.021,0.011 -0.021,-0.005 -0.03,-0.025"/>
      <path id="svg_43" fill="#FFFFFF" d="m54.118,-48.695c0.018,0.072 0.007,0.127 -0.026,0.19c-0.053,0.101 -0.112,0.062 -0.165,0.128c-0.05,0.062 -0.099,0.276 -0.079,0.362c-0.169,0.058 -0.009,0.227 -0.015,0.35c-0.002,0.05 -0.041,0.105 -0.045,0.161c-0.01,0.119 0.017,0.266 0.068,0.37c0.097,0.198 0.268,0.413 0.435,0.544c0.19,0.148 0.365,0.572 0.608,0.631c0.177,0.042 0.384,-0.104 0.543,-0.143c0.18,-0.043 0.397,0.01 0.571,-0.053c0.222,-0.079 0.127,-0.337 0.288,-0.45c0.104,-0.074 0.287,-0.01 0.406,-0.051c0.2,-0.069 0.339,-0.263 0.376,-0.46c0.016,-0.082 0.01,-0.145 0.039,-0.221c0.039,-0.103 0.111,-0.16 0.09,-0.293c-0.01,-0.062 -0.052,-0.12 -0.064,-0.187c-0.022,-0.114 0.002,-0.224 0,-0.337c-0.003,-0.2 0.017,-0.379 -0.078,-0.55c-0.38,-0.688 -1.236,-0.929 -1.975,-0.789c-0.18,0.034 -0.287,0.126 -0.442,0.207c-0.17,0.088 -0.139,0.166 -0.318,0.224c-0.081,0.026 -0.216,0.124 -0.215,0.224c0.001,0.115 0.005,0.051 0.012,0.169c-0.021,0.011 -0.021,-0.005 -0.03,-0.025"/>
      <path id="svg_44" fill="#FFFFFF" d="m46.458,-48.695c0.018,0.072 0.007,0.127 -0.026,0.19c-0.053,0.101 -0.112,0.062 -0.165,0.128c-0.05,0.062 -0.099,0.276 -0.079,0.362c-0.169,0.058 -0.009,0.227 -0.015,0.35c-0.002,0.05 -0.041,0.105 -0.045,0.161c-0.01,0.119 0.017,0.266 0.068,0.37c0.097,0.198 0.268,0.413 0.435,0.544c0.19,0.148 0.365,0.572 0.608,0.631c0.177,0.042 0.384,-0.104 0.543,-0.143c0.18,-0.043 0.397,0.01 0.571,-0.053c0.222,-0.079 0.127,-0.337 0.288,-0.45c0.104,-0.074 0.287,-0.01 0.406,-0.051c0.2,-0.069 0.339,-0.263 0.376,-0.46c0.016,-0.082 0.01,-0.145 0.039,-0.221c0.039,-0.103 0.111,-0.16 0.09,-0.293c-0.01,-0.062 -0.052,-0.12 -0.064,-0.187c-0.022,-0.114 0.002,-0.224 0,-0.337c-0.003,-0.2 0.017,-0.379 -0.078,-0.55c-0.38,-0.688 -1.236,-0.929 -1.975,-0.789c-0.18,0.034 -0.287,0.126 -0.442,0.207c-0.17,0.088 -0.139,0.166 -0.318,0.224c-0.081,0.026 -0.216,0.124 -0.215,0.224c0.001,0.115 0.005,0.051 0.012,0.169c-0.021,0.011 -0.021,-0.005 -0.03,-0.025"/>
      <path id="svg_45" fill="#FFFFFF" d="m38.797,-48.695c0.018,0.072 0.007,0.127 -0.026,0.19c-0.053,0.101 -0.112,0.062 -0.165,0.128c-0.05,0.062 -0.099,0.276 -0.079,0.362c-0.169,0.058 -0.009,0.227 -0.015,0.35c-0.002,0.05 -0.041,0.105 -0.045,0.161c-0.01,0.119 0.017,0.266 0.068,0.37c0.097,0.198 0.268,0.413 0.435,0.544c0.19,0.148 0.365,0.572 0.608,0.631c0.177,0.042 0.384,-0.104 0.543,-0.143c0.18,-0.043 0.397,0.01 0.571,-0.053c0.222,-0.079 0.127,-0.337 0.288,-0.45c0.104,-0.074 0.287,-0.01 0.406,-0.051c0.2,-0.069 0.339,-0.263 0.376,-0.46c0.016,-0.082 0.01,-0.145 0.039,-0.221c0.039,-0.103 0.111,-0.16 0.09,-0.293c-0.01,-0.062 -0.052,-0.12 -0.064,-0.187c-0.022,-0.114 0.002,-0.224 0,-0.337c-0.003,-0.2 0.017,-0.379 -0.078,-0.55c-0.38,-0.688 -1.236,-0.929 -1.975,-0.789c-0.18,0.034 -0.287,0.126 -0.442,0.207c-0.17,0.088 -0.139,0.166 -0.318,0.224c-0.081,0.026 -0.216,0.124 -0.215,0.224c0.001,0.115 0.005,0.051 0.012,0.169c-0.021,0.011 -0.021,-0.005 -0.03,-0.025"/>
      <path id="svg_46" fill="#FFFFFF" d="m31.137,-48.695c0.018,0.072 0.007,0.127 -0.026,0.19c-0.053,0.101 -0.112,0.062 -0.165,0.128c-0.05,0.062 -0.099,0.276 -0.079,0.362c-0.169,0.058 -0.009,0.227 -0.015,0.35c-0.002,0.05 -0.041,0.105 -0.045,0.161c-0.01,0.119 0.017,0.266 0.068,0.37c0.097,0.198 0.268,0.413 0.435,0.544c0.19,0.148 0.365,0.572 0.608,0.631c0.177,0.042 0.384,-0.104 0.543,-0.143c0.18,-0.043 0.397,0.01 0.571,-0.053c0.222,-0.079 0.127,-0.337 0.288,-0.45c0.104,-0.074 0.287,-0.01 0.406,-0.051c0.2,-0.069 0.339,-0.263 0.376,-0.46c0.016,-0.082 0.01,-0.145 0.039,-0.221c0.039,-0.103 0.111,-0.16 0.09,-0.293c-0.01,-0.062 -0.052,-0.12 -0.064,-0.187c-0.022,-0.114 0.002,-0.224 0,-0.337c-0.003,-0.2 0.017,-0.379 -0.078,-0.55c-0.38,-0.688 -1.236,-0.929 -1.975,-0.789c-0.18,0.034 -0.287,0.126 -0.442,0.207c-0.17,0.088 -0.139,0.166 -0.318,0.224c-0.081,0.026 -0.216,0.124 -0.215,0.224c0.001,0.115 0.005,0.051 0.012,0.169c-0.021,0.011 -0.021,-0.005 -0.03,-0.025"/>
      <path id="svg_47" fill="#FFFFFF" d="m23.477,-48.695c0.018,0.072 0.007,0.127 -0.026,0.19c-0.053,0.101 -0.112,0.062 -0.165,0.128c-0.05,0.062 -0.099,0.276 -0.079,0.362c-0.169,0.058 -0.009,0.227 -0.015,0.35c-0.002,0.05 -0.041,0.105 -0.045,0.161c-0.01,0.119 0.017,0.266 0.068,0.37c0.097,0.198 0.268,0.413 0.435,0.544c0.19,0.148 0.365,0.572 0.608,0.631c0.177,0.042 0.384,-0.104 0.543,-0.143c0.18,-0.043 0.397,0.01 0.571,-0.053c0.222,-0.079 0.127,-0.337 0.288,-0.45c0.104,-0.074 0.287,-0.01 0.406,-0.051c0.2,-0.069 0.339,-0.263 0.376,-0.46c0.016,-0.082 0.01,-0.145 0.039,-0.221c0.039,-0.103 0.111,-0.16 0.09,-0.293c-0.01,-0.062 -0.052,-0.12 -0.064,-0.187c-0.022,-0.114 0.002,-0.224 0,-0.337c-0.003,-0.2 0.017,-0.379 -0.078,-0.55c-0.38,-0.688 -1.236,-0.929 -1.975,-0.789c-0.18,0.034 -0.287,0.126 -0.442,0.207c-0.17,0.088 -0.139,0.166 -0.318,0.224c-0.081,0.026 -0.216,0.124 -0.215,0.224c0.001,0.115 0.005,0.051 0.012,0.169c-0.021,0.011 -0.021,-0.005 -0.03,-0.025"/>
      <path id="svg_48" fill="#FFFFFF" d="m15.816,-48.695c0.018,0.072 0.007,0.127 -0.026,0.19c-0.053,0.101 -0.112,0.062 -0.165,0.128c-0.05,0.062 -0.099,0.276 -0.079,0.362c-0.169,0.058 -0.009,0.227 -0.015,0.35c-0.002,0.05 -0.041,0.105 -0.045,0.161c-0.01,0.119 0.017,0.266 0.068,0.37c0.097,0.198 0.268,0.413 0.435,0.544c0.19,0.148 0.365,0.572 0.608,0.631c0.177,0.042 0.384,-0.104 0.543,-0.143c0.18,-0.043 0.397,0.01 0.571,-0.053c0.222,-0.079 0.127,-0.337 0.288,-0.45c0.104,-0.074 0.287,-0.01 0.406,-0.051c0.2,-0.069 0.339,-0.263 0.376,-0.46c0.016,-0.082 0.01,-0.145 0.039,-0.221c0.039,-0.103 0.111,-0.16 0.09,-0.293c-0.01,-0.062 -0.052,-0.12 -0.064,-0.187c-0.022,-0.114 0.002,-0.224 0,-0.337c-0.003,-0.2 0.017,-0.379 -0.078,-0.55c-0.38,-0.688 -1.236,-0.929 -1.975,-0.789c-0.18,0.034 -0.287,0.126 -0.442,0.207c-0.17,0.088 -0.139,0.166 -0.318,0.224c-0.081,0.026 -0.216,0.124 -0.215,0.224c0.001,0.115 0.005,0.051 0.012,0.169c-0.021,0.011 -0.021,-0.005 -0.03,-0.025"/>
      <path id="svg_49" fill="#FFFFFF" d="m8.156,-48.695c0.018,0.072 0.007,0.127 -0.026,0.19c-0.053,0.101 -0.112,0.062 -0.165,0.128c-0.05,0.062 -0.099,0.276 -0.079,0.362c-0.169,0.058 -0.009,0.227 -0.015,0.35c-0.002,0.05 -0.041,0.105 -0.045,0.161c-0.01,0.119 0.017,0.266 0.068,0.37c0.097,0.198 0.268,0.413 0.435,0.544c0.19,0.148 0.365,0.572 0.608,0.631c0.177,0.042 0.384,-0.104 0.543,-0.143c0.18,-0.043 0.397,0.01 0.571,-0.053c0.222,-0.079 0.127,-0.337 0.288,-0.45c0.104,-0.074 0.287,-0.01 0.406,-0.051c0.2,-0.069 0.339,-0.263 0.376,-0.46c0.016,-0.082 0.01,-0.145 0.039,-0.221c0.039,-0.103 0.111,-0.16 0.09,-0.293c-0.01,-0.062 -0.052,-0.12 -0.064,-0.187c-0.022,-0.114 0.002,-0.224 0,-0.337c-0.003,-0.2 0.017,-0.379 -0.078,-0.55c-0.38,-0.688 -1.236,-0.929 -1.975,-0.789c-0.18,0.034 -0.287,0.126 -0.442,0.207c-0.17,0.088 -0.139,0.166 -0.318,0.224c-0.081,0.026 -0.216,0.124 -0.215,0.224c0.001,0.115 0.005,0.051 0.012,0.169c-0.021,0.011 -0.021,-0.005 -0.03,-0.025"/>
      <path id="svg_50" fill="#FFFFFF" d="m0.495,-48.695c0.018,0.072 0.007,0.127 -0.026,0.19c-0.053,0.101 -0.112,0.062 -0.165,0.128c-0.05,0.062 -0.099,0.276 -0.079,0.362c-0.169,0.058 -0.01,0.227 -0.015,0.35c-0.002,0.05 -0.041,0.105 -0.045,0.161c-0.01,0.119 0.017,0.266 0.068,0.37c0.097,0.198 0.268,0.413 0.435,0.544c0.19,0.148 0.365,0.572 0.608,0.631c0.177,0.042 0.384,-0.104 0.543,-0.143c0.18,-0.043 0.397,0.01 0.571,-0.053c0.222,-0.079 0.127,-0.337 0.288,-0.45c0.104,-0.074 0.287,-0.01 0.406,-0.051c0.2,-0.069 0.339,-0.263 0.376,-0.46c0.016,-0.082 0.01,-0.145 0.039,-0.221c0.039,-0.103 0.111,-0.16 0.09,-0.293c-0.01,-0.062 -0.052,-0.12 -0.064,-0.187c-0.022,-0.114 0.002,-0.224 0,-0.337c-0.003,-0.2 0.017,-0.379 -0.078,-0.55c-0.38,-0.688 -1.236,-0.929 -1.975,-0.789c-0.18,0.034 -0.287,0.126 -0.442,0.207c-0.17,0.088 -0.139,0.166 -0.318,0.224c-0.081,0.026 -0.216,0.124 -0.215,0.224c0.001,0.115 0.005,0.051 0.012,0.169c-0.021,0.011 -0.021,-0.005 -0.03,-0.025"/>
     </g>
     <g id="svg_51">
      <path id="svg_52" fill="#FFFFFF" d="m69.439,-41.042c0.018,0.072 0.007,0.127 -0.026,0.19c-0.053,0.101 -0.112,0.062 -0.165,0.128c-0.05,0.062 -0.099,0.276 -0.079,0.362c-0.169,0.058 -0.01,0.227 -0.015,0.35c-0.002,0.05 -0.041,0.105 -0.045,0.161c-0.01,0.119 0.017,0.266 0.068,0.37c0.097,0.198 0.268,0.413 0.435,0.544c0.19,0.148 0.365,0.572 0.608,0.631c0.177,0.042 0.384,-0.104 0.543,-0.143c0.18,-0.043 0.397,0.01 0.571,-0.053c0.222,-0.079 0.127,-0.337 0.288,-0.45c0.104,-0.074 0.287,-0.01 0.406,-0.051c0.2,-0.069 0.339,-0.263 0.376,-0.46c0.016,-0.082 0.01,-0.145 0.039,-0.221c0.039,-0.103 0.111,-0.16 0.09,-0.293c-0.01,-0.062 -0.052,-0.12 -0.064,-0.187c-0.022,-0.114 0.002,-0.224 0,-0.337c-0.003,-0.2 0.017,-0.379 -0.078,-0.55c-0.38,-0.688 -1.236,-0.929 -1.975,-0.789c-0.18,0.034 -0.287,0.126 -0.442,0.207c-0.17,0.088 -0.139,0.166 -0.318,0.224c-0.081,0.026 -0.216,0.124 -0.215,0.224c0.001,0.115 0.005,0.051 0.012,0.169c-0.021,0.011 -0.021,-0.005 -0.03,-0.025"/>
      <path id="svg_53" fill="#FFFFFF" d="m61.778,-41.042c0.018,0.072 0.007,0.127 -0.026,0.19c-0.053,0.101 -0.112,0.062 -0.165,0.128c-0.05,0.062 -0.099,0.276 -0.079,0.362c-0.169,0.058 -0.009,0.227 -0.015,0.35c-0.002,0.05 -0.041,0.105 -0.045,0.161c-0.01,0.119 0.017,0.266 0.068,0.37c0.097,0.198 0.268,0.413 0.435,0.544c0.19,0.148 0.365,0.572 0.608,0.631c0.177,0.042 0.384,-0.104 0.543,-0.143c0.18,-0.043 0.397,0.01 0.571,-0.053c0.222,-0.079 0.127,-0.337 0.288,-0.45c0.104,-0.074 0.287,-0.01 0.406,-0.051c0.2,-0.069 0.339,-0.263 0.376,-0.46c0.016,-0.082 0.01,-0.145 0.039,-0.221c0.039,-0.103 0.111,-0.16 0.09,-0.293c-0.01,-0.062 -0.052,-0.12 -0.064,-0.187c-0.022,-0.114 0.002,-0.224 0,-0.337c-0.003,-0.2 0.017,-0.379 -0.078,-0.55c-0.38,-0.688 -1.236,-0.929 -1.975,-0.789c-0.18,0.034 -0.287,0.126 -0.442,0.207c-0.17,0.088 -0.139,0.166 -0.318,0.224c-0.081,0.026 -0.216,0.124 -0.215,0.224c0.001,0.115 0.005,0.051 0.012,0.169c-0.021,0.011 -0.021,-0.005 -0.03,-0.025"/>
      <path id="svg_54" fill="#FFFFFF" d="m54.118,-41.042c0.018,0.072 0.007,0.127 -0.026,0.19c-0.053,0.101 -0.112,0.062 -0.165,0.128c-0.05,0.062 -0.099,0.276 -0.079,0.362c-0.169,0.058 -0.009,0.227 -0.015,0.35c-0.002,0.05 -0.041,0.105 -0.045,0.161c-0.01,0.119 0.017,0.266 0.068,0.37c0.097,0.198 0.268,0.413 0.435,0.544c0.19,0.148 0.365,0.572 0.608,0.631c0.177,0.042 0.384,-0.104 0.543,-0.143c0.18,-0.043 0.397,0.01 0.571,-0.053c0.222,-0.079 0.127,-0.337 0.288,-0.45c0.104,-0.074 0.287,-0.01 0.406,-0.051c0.2,-0.069 0.339,-0.263 0.376,-0.46c0.016,-0.082 0.01,-0.145 0.039,-0.221c0.039,-0.103 0.111,-0.16 0.09,-0.293c-0.01,-0.062 -0.052,-0.12 -0.064,-0.187c-0.022,-0.114 0.002,-0.224 0,-0.337c-0.003,-0.2 0.017,-0.379 -0.078,-0.55c-0.38,-0.688 -1.236,-0.929 -1.975,-0.789c-0.18,0.034 -0.287,0.126 -0.442,0.207c-0.17,0.088 -0.139,0.166 -0.318,0.224c-0.081,0.026 -0.216,0.124 -0.215,0.224c0.001,0.115 0.005,0.051 0.012,0.169c-0.021,0.011 -0.021,-0.005 -0.03,-0.025"/>
      <path id="svg_55" fill="#FFFFFF" d="m46.458,-41.042c0.018,0.072 0.007,0.127 -0.026,0.19c-0.053,0.101 -0.112,0.062 -0.165,0.128c-0.05,0.062 -0.099,0.276 -0.079,0.362c-0.169,0.058 -0.009,0.227 -0.015,0.35c-0.002,0.05 -0.041,0.105 -0.045,0.161c-0.01,0.119 0.017,0.266 0.068,0.37c0.097,0.198 0.268,0.413 0.435,0.544c0.19,0.148 0.365,0.572 0.608,0.631c0.177,0.042 0.384,-0.104 0.543,-0.143c0.18,-0.043 0.397,0.01 0.571,-0.053c0.222,-0.079 0.127,-0.337 0.288,-0.45c0.104,-0.074 0.287,-0.01 0.406,-0.051c0.2,-0.069 0.339,-0.263 0.376,-0.46c0.016,-0.082 0.01,-0.145 0.039,-0.221c0.039,-0.103 0.111,-0.16 0.09,-0.293c-0.01,-0.062 -0.052,-0.12 -0.064,-0.187c-0.022,-0.114 0.002,-0.224 0,-0.337c-0.003,-0.2 0.017,-0.379 -0.078,-0.55c-0.38,-0.688 -1.236,-0.929 -1.975,-0.789c-0.18,0.034 -0.287,0.126 -0.442,0.207c-0.17,0.088 -0.139,0.166 -0.318,0.224c-0.081,0.026 -0.216,0.124 -0.215,0.224c0.001,0.115 0.005,0.051 0.012,0.169c-0.021,0.011 -0.021,-0.005 -0.03,-0.025"/>
      <path id="svg_56" fill="#FFFFFF" d="m38.797,-41.042c0.018,0.072 0.007,0.127 -0.026,0.19c-0.053,0.101 -0.112,0.062 -0.165,0.128c-0.05,0.062 -0.099,0.276 -0.079,0.362c-0.169,0.058 -0.009,0.227 -0.015,0.35c-0.002,0.05 -0.041,0.105 -0.045,0.161c-0.01,0.119 0.017,0.266 0.068,0.37c0.097,0.198 0.268,0.413 0.435,0.544c0.19,0.148 0.365,0.572 0.608,0.631c0.177,0.042 0.384,-0.104 0.543,-0.143c0.18,-0.043 0.397,0.01 0.571,-0.053c0.222,-0.079 0.127,-0.337 0.288,-0.45c0.104,-0.074 0.287,-0.01 0.406,-0.051c0.2,-0.069 0.339,-0.263 0.376,-0.46c0.016,-0.082 0.01,-0.145 0.039,-0.221c0.039,-0.103 0.111,-0.16 0.09,-0.293c-0.01,-0.062 -0.052,-0.12 -0.064,-0.187c-0.022,-0.114 0.002,-0.224 0,-0.337c-0.003,-0.2 0.017,-0.379 -0.078,-0.55c-0.38,-0.688 -1.236,-0.929 -1.975,-0.789c-0.18,0.034 -0.287,0.126 -0.442,0.207c-0.17,0.088 -0.139,0.166 -0.318,0.224c-0.081,0.026 -0.216,0.124 -0.215,0.224c0.001,0.115 0.005,0.051 0.012,0.169c-0.021,0.011 -0.021,-0.005 -0.03,-0.025"/>
      <path id="svg_57" fill="#FFFFFF" d="m31.137,-41.042c0.018,0.072 0.007,0.127 -0.026,0.19c-0.053,0.101 -0.112,0.062 -0.165,0.128c-0.05,0.062 -0.099,0.276 -0.079,0.362c-0.169,0.058 -0.009,0.227 -0.015,0.35c-0.002,0.05 -0.041,0.105 -0.045,0.161c-0.01,0.119 0.017,0.266 0.068,0.37c0.097,0.198 0.268,0.413 0.435,0.544c0.19,0.148 0.365,0.572 0.608,0.631c0.177,0.042 0.384,-0.104 0.543,-0.143c0.18,-0.043 0.397,0.01 0.571,-0.053c0.222,-0.079 0.127,-0.337 0.288,-0.45c0.104,-0.074 0.287,-0.01 0.406,-0.051c0.2,-0.069 0.339,-0.263 0.376,-0.46c0.016,-0.082 0.01,-0.145 0.039,-0.221c0.039,-0.103 0.111,-0.16 0.09,-0.293c-0.01,-0.062 -0.052,-0.12 -0.064,-0.187c-0.022,-0.114 0.002,-0.224 0,-0.337c-0.003,-0.2 0.017,-0.379 -0.078,-0.55c-0.38,-0.688 -1.236,-0.929 -1.975,-0.789c-0.18,0.034 -0.287,0.126 -0.442,0.207c-0.17,0.088 -0.139,0.166 -0.318,0.224c-0.081,0.026 -0.216,0.124 -0.215,0.224c0.001,0.115 0.005,0.051 0.012,0.169c-0.021,0.011 -0.021,-0.005 -0.03,-0.025"/>
      <path id="svg_58" fill="#FFFFFF" d="m23.477,-41.042c0.018,0.072 0.007,0.127 -0.026,0.19c-0.053,0.101 -0.112,0.062 -0.165,0.128c-0.05,0.062 -0.099,0.276 -0.079,0.362c-0.169,0.058 -0.009,0.227 -0.015,0.35c-0.002,0.05 -0.041,0.105 -0.045,0.161c-0.01,0.119 0.017,0.266 0.068,0.37c0.097,0.198 0.268,0.413 0.435,0.544c0.19,0.148 0.365,0.572 0.608,0.631c0.177,0.042 0.384,-0.104 0.543,-0.143c0.18,-0.043 0.397,0.01 0.571,-0.053c0.222,-0.079 0.127,-0.337 0.288,-0.45c0.104,-0.074 0.287,-0.01 0.406,-0.051c0.2,-0.069 0.339,-0.263 0.376,-0.46c0.016,-0.082 0.01,-0.145 0.039,-0.221c0.039,-0.103 0.111,-0.16 0.09,-0.293c-0.01,-0.062 -0.052,-0.12 -0.064,-0.187c-0.022,-0.114 0.002,-0.224 0,-0.337c-0.003,-0.2 0.017,-0.379 -0.078,-0.55c-0.38,-0.688 -1.236,-0.929 -1.975,-0.789c-0.18,0.034 -0.287,0.126 -0.442,0.207c-0.17,0.088 -0.139,0.166 -0.318,0.224c-0.081,0.026 -0.216,0.124 -0.215,0.224c0.001,0.115 0.005,0.051 0.012,0.169c-0.021,0.011 -0.021,-0.005 -0.03,-0.025"/>
      <path id="svg_59" fill="#FFFFFF" d="m15.816,-41.042c0.018,0.072 0.007,0.127 -0.026,0.19c-0.053,0.101 -0.112,0.062 -0.165,0.128c-0.05,0.062 -0.099,0.276 -0.079,0.362c-0.169,0.058 -0.009,0.227 -0.015,0.35c-0.002,0.05 -0.041,0.105 -0.045,0.161c-0.01,0.119 0.017,0.266 0.068,0.37c0.097,0.198 0.268,0.413 0.435,0.544c0.19,0.148 0.365,0.572 0.608,0.631c0.177,0.042 0.384,-0.104 0.543,-0.143c0.18,-0.043 0.397,0.01 0.571,-0.053c0.222,-0.079 0.127,-0.337 0.288,-0.45c0.104,-0.074 0.287,-0.01 0.406,-0.051c0.2,-0.069 0.339,-0.263 0.376,-0.46c0.016,-0.082 0.01,-0.145 0.039,-0.221c0.039,-0.103 0.111,-0.16 0.09,-0.293c-0.01,-0.062 -0.052,-0.12 -0.064,-0.187c-0.022,-0.114 0.002,-0.224 0,-0.337c-0.003,-0.2 0.017,-0.379 -0.078,-0.55c-0.38,-0.688 -1.236,-0.929 -1.975,-0.789c-0.18,0.034 -0.287,0.126 -0.442,0.207c-0.17,0.088 -0.139,0.166 -0.318,0.224c-0.081,0.026 -0.216,0.124 -0.215,0.224c0.001,0.115 0.005,0.051 0.012,0.169c-0.021,0.011 -0.021,-0.005 -0.03,-0.025"/>
      <path id="svg_60" fill="#FFFFFF" d="m8.156,-41.042c0.018,0.072 0.007,0.127 -0.026,0.19c-0.053,0.101 -0.112,0.062 -0.165,0.128c-0.05,0.062 -0.099,0.276 -0.079,0.362c-0.169,0.058 -0.009,0.227 -0.015,0.35c-0.002,0.05 -0.041,0.105 -0.045,0.161c-0.01,0.119 0.017,0.266 0.068,0.37c0.097,0.198 0.268,0.413 0.435,0.544c0.19,0.148 0.365,0.572 0.608,0.631c0.177,0.042 0.384,-0.104 0.543,-0.143c0.18,-0.043 0.397,0.01 0.571,-0.053c0.222,-0.079 0.127,-0.337 0.288,-0.45c0.104,-0.074 0.287,-0.01 0.406,-0.051c0.2,-0.069 0.339,-0.263 0.376,-0.46c0.016,-0.082 0.01,-0.145 0.039,-0.221c0.039,-0.103 0.111,-0.16 0.09,-0.293c-0.01,-0.062 -0.052,-0.12 -0.064,-0.187c-0.022,-0.114 0.002,-0.224 0,-0.337c-0.003,-0.2 0.017,-0.379 -0.078,-0.55c-0.38,-0.688 -1.236,-0.929 -1.975,-0.789c-0.18,0.034 -0.287,0.126 -0.442,0.207c-0.17,0.088 -0.139,0.166 -0.318,0.224c-0.081,0.026 -0.216,0.124 -0.215,0.224c0.001,0.115 0.005,0.051 0.012,0.169c-0.02,0.012 -0.021,-0.004 -0.03,-0.024"/>
      <path id="svg_61" fill="#FFFFFF" d="m0.495,-41.042c0.018,0.072 0.007,0.127 -0.026,0.19c-0.053,0.101 -0.112,0.062 -0.165,0.128c-0.05,0.062 -0.099,0.276 -0.079,0.362c-0.169,0.058 -0.01,0.227 -0.015,0.35c-0.002,0.05 -0.041,0.105 -0.045,0.161c-0.01,0.119 0.017,0.266 0.068,0.37c0.097,0.198 0.268,0.413 0.435,0.544c0.19,0.148 0.365,0.572 0.608,0.631c0.177,0.042 0.384,-0.104 0.543,-0.143c0.18,-0.043 0.397,0.01 0.571,-0.053c0.222,-0.079 0.127,-0.337 0.288,-0.45c0.104,-0.074 0.287,-0.01 0.406,-0.051c0.2,-0.069 0.339,-0.263 0.376,-0.46c0.016,-0.082 0.01,-0.145 0.039,-0.221c0.039,-0.103 0.111,-0.16 0.09,-0.293c-0.01,-0.062 -0.052,-0.12 -0.064,-0.187c-0.022,-0.114 0.002,-0.224 0,-0.337c-0.003,-0.2 0.017,-0.379 -0.078,-0.55c-0.38,-0.688 -1.236,-0.929 -1.975,-0.789c-0.18,0.034 -0.287,0.126 -0.442,0.207c-0.17,0.088 -0.139,0.166 -0.318,0.224c-0.081,0.026 -0.216,0.124 -0.215,0.224c0.001,0.115 0.005,0.051 0.012,0.169c-0.021,0.011 -0.021,-0.005 -0.03,-0.025"/>
     </g>
     <g id="svg_62">
      <path id="svg_63" fill="#FFFFFF" d="m69.439,-33.39c0.018,0.072 0.007,0.127 -0.026,0.19c-0.053,0.101 -0.112,0.062 -0.165,0.128c-0.05,0.062 -0.099,0.276 -0.079,0.362c-0.169,0.058 -0.01,0.227 -0.015,0.35c-0.002,0.05 -0.041,0.105 -0.045,0.161c-0.01,0.119 0.017,0.266 0.068,0.37c0.097,0.198 0.268,0.413 0.435,0.544c0.19,0.148 0.365,0.572 0.608,0.631c0.177,0.042 0.384,-0.104 0.543,-0.143c0.18,-0.043 0.397,0.01 0.571,-0.053c0.222,-0.079 0.127,-0.337 0.288,-0.45c0.104,-0.074 0.287,-0.01 0.406,-0.051c0.2,-0.069 0.339,-0.263 0.376,-0.46c0.016,-0.082 0.01,-0.145 0.039,-0.221c0.039,-0.103 0.111,-0.16 0.09,-0.293c-0.01,-0.062 -0.052,-0.12 -0.064,-0.187c-0.022,-0.114 0.002,-0.224 0,-0.337c-0.003,-0.2 0.017,-0.379 -0.078,-0.55c-0.38,-0.688 -1.236,-0.929 -1.975,-0.789c-0.18,0.034 -0.287,0.126 -0.442,0.207c-0.17,0.088 -0.139,0.166 -0.318,0.224c-0.081,0.026 -0.216,0.124 -0.215,0.224c0.001,0.115 0.005,0.051 0.012,0.169c-0.021,0.011 -0.021,-0.005 -0.03,-0.025"/>
      <path id="svg_64" fill="#FFFFFF" d="m61.778,-33.39c0.018,0.072 0.007,0.127 -0.026,0.19c-0.053,0.101 -0.112,0.062 -0.165,0.128c-0.05,0.062 -0.099,0.276 -0.079,0.362c-0.169,0.058 -0.009,0.227 -0.015,0.35c-0.002,0.05 -0.041,0.105 -0.045,0.161c-0.01,0.119 0.017,0.266 0.068,0.37c0.097,0.198 0.268,0.413 0.435,0.544c0.19,0.148 0.365,0.572 0.608,0.631c0.177,0.042 0.384,-0.104 0.543,-0.143c0.18,-0.043 0.397,0.01 0.571,-0.053c0.222,-0.079 0.127,-0.337 0.288,-0.45c0.104,-0.074 0.287,-0.01 0.406,-0.051c0.2,-0.069 0.339,-0.263 0.376,-0.46c0.016,-0.082 0.01,-0.145 0.039,-0.221c0.039,-0.103 0.111,-0.16 0.09,-0.293c-0.01,-0.062 -0.052,-0.12 -0.064,-0.187c-0.022,-0.114 0.002,-0.224 0,-0.337c-0.003,-0.2 0.017,-0.379 -0.078,-0.55c-0.38,-0.688 -1.236,-0.929 -1.975,-0.789c-0.18,0.034 -0.287,0.126 -0.442,0.207c-0.17,0.088 -0.139,0.166 -0.318,0.224c-0.081,0.026 -0.216,0.124 -0.215,0.224c0.001,0.115 0.005,0.051 0.012,0.169c-0.021,0.011 -0.021,-0.005 -0.03,-0.025"/>
      <path id="svg_65" fill="#FFFFFF" d="m54.118,-33.39c0.018,0.072 0.007,0.127 -0.026,0.19c-0.053,0.101 -0.112,0.062 -0.165,0.128c-0.05,0.062 -0.099,0.276 -0.079,0.362c-0.169,0.058 -0.009,0.227 -0.015,0.35c-0.002,0.05 -0.041,0.105 -0.045,0.161c-0.01,0.119 0.017,0.266 0.068,0.37c0.097,0.198 0.268,0.413 0.435,0.544c0.19,0.148 0.365,0.572 0.608,0.631c0.177,0.042 0.384,-0.104 0.543,-0.143c0.18,-0.043 0.397,0.01 0.571,-0.053c0.222,-0.079 0.127,-0.337 0.288,-0.45c0.104,-0.074 0.287,-0.01 0.406,-0.051c0.2,-0.069 0.339,-0.263 0.376,-0.46c0.016,-0.082 0.01,-0.145 0.039,-0.221c0.039,-0.103 0.111,-0.16 0.09,-0.293c-0.01,-0.062 -0.052,-0.12 -0.064,-0.187c-0.022,-0.114 0.002,-0.224 0,-0.337c-0.003,-0.2 0.017,-0.379 -0.078,-0.55c-0.38,-0.688 -1.236,-0.929 -1.975,-0.789c-0.18,0.034 -0.287,0.126 -0.442,0.207c-0.17,0.088 -0.139,0.166 -0.318,0.224c-0.081,0.026 -0.216,0.124 -0.215,0.224c0.001,0.115 0.005,0.051 0.012,0.169c-0.021,0.011 -0.021,-0.005 -0.03,-0.025"/>
      <path id="svg_66" fill="#FFFFFF" d="m46.458,-33.39c0.018,0.072 0.007,0.127 -0.026,0.19c-0.053,0.101 -0.112,0.062 -0.165,0.128c-0.05,0.062 -0.099,0.276 -0.079,0.362c-0.169,0.058 -0.009,0.227 -0.015,0.35c-0.002,0.05 -0.041,0.105 -0.045,0.161c-0.01,0.119 0.017,0.266 0.068,0.37c0.097,0.198 0.268,0.413 0.435,0.544c0.19,0.148 0.365,0.572 0.608,0.631c0.177,0.042 0.384,-0.104 0.543,-0.143c0.18,-0.043 0.397,0.01 0.571,-0.053c0.222,-0.079 0.127,-0.337 0.288,-0.45c0.104,-0.074 0.287,-0.01 0.406,-0.051c0.2,-0.069 0.339,-0.263 0.376,-0.46c0.016,-0.082 0.01,-0.145 0.039,-0.221c0.039,-0.103 0.111,-0.16 0.09,-0.293c-0.01,-0.062 -0.052,-0.12 -0.064,-0.187c-0.022,-0.114 0.002,-0.224 0,-0.337c-0.003,-0.2 0.017,-0.379 -0.078,-0.55c-0.38,-0.688 -1.236,-0.929 -1.975,-0.789c-0.18,0.034 -0.287,0.126 -0.442,0.207c-0.17,0.088 -0.139,0.166 -0.318,0.224c-0.081,0.026 -0.216,0.124 -0.215,0.224c0.001,0.115 0.005,0.051 0.012,0.169c-0.021,0.011 -0.021,-0.005 -0.03,-0.025"/>
      <path id="svg_67" fill="#FFFFFF" d="m38.797,-33.39c0.018,0.072 0.007,0.127 -0.026,0.19c-0.053,0.101 -0.112,0.062 -0.165,0.128c-0.05,0.062 -0.099,0.276 -0.079,0.362c-0.169,0.058 -0.009,0.227 -0.015,0.35c-0.002,0.05 -0.041,0.105 -0.045,0.161c-0.01,0.119 0.017,0.266 0.068,0.37c0.097,0.198 0.268,0.413 0.435,0.544c0.19,0.148 0.365,0.572 0.608,0.631c0.177,0.042 0.384,-0.104 0.543,-0.143c0.18,-0.043 0.397,0.01 0.571,-0.053c0.222,-0.079 0.127,-0.337 0.288,-0.45c0.104,-0.074 0.287,-0.01 0.406,-0.051c0.2,-0.069 0.339,-0.263 0.376,-0.46c0.016,-0.082 0.01,-0.145 0.039,-0.221c0.039,-0.103 0.111,-0.16 0.09,-0.293c-0.01,-0.062 -0.052,-0.12 -0.064,-0.187c-0.022,-0.114 0.002,-0.224 0,-0.337c-0.003,-0.2 0.017,-0.379 -0.078,-0.55c-0.38,-0.688 -1.236,-0.929 -1.975,-0.789c-0.18,0.034 -0.287,0.126 -0.442,0.207c-0.17,0.088 -0.139,0.166 -0.318,0.224c-0.081,0.026 -0.216,0.124 -0.215,0.224c0.001,0.115 0.005,0.051 0.012,0.169c-0.021,0.011 -0.021,-0.005 -0.03,-0.025"/>
      <path id="svg_68" fill="#FFFFFF" d="m31.137,-33.39c0.018,0.072 0.007,0.127 -0.026,0.19c-0.053,0.101 -0.112,0.062 -0.165,0.128c-0.05,0.062 -0.099,0.276 -0.079,0.362c-0.169,0.058 -0.009,0.227 -0.015,0.35c-0.002,0.05 -0.041,0.105 -0.045,0.161c-0.01,0.119 0.017,0.266 0.068,0.37c0.097,0.198 0.268,0.413 0.435,0.544c0.19,0.148 0.365,0.572 0.608,0.631c0.177,0.042 0.384,-0.104 0.543,-0.143c0.18,-0.043 0.397,0.01 0.571,-0.053c0.222,-0.079 0.127,-0.337 0.288,-0.45c0.104,-0.074 0.287,-0.01 0.406,-0.051c0.2,-0.069 0.339,-0.263 0.376,-0.46c0.016,-0.082 0.01,-0.145 0.039,-0.221c0.039,-0.103 0.111,-0.16 0.09,-0.293c-0.01,-0.062 -0.052,-0.12 -0.064,-0.187c-0.022,-0.114 0.002,-0.224 0,-0.337c-0.003,-0.2 0.017,-0.379 -0.078,-0.55c-0.38,-0.688 -1.236,-0.929 -1.975,-0.789c-0.18,0.034 -0.287,0.126 -0.442,0.207c-0.17,0.088 -0.139,0.166 -0.318,0.224c-0.081,0.026 -0.216,0.124 -0.215,0.224c0.001,0.115 0.005,0.051 0.012,0.169c-0.021,0.011 -0.021,-0.005 -0.03,-0.025"/>
      <path id="svg_69" fill="#FFFFFF" d="m23.477,-33.39c0.018,0.072 0.007,0.127 -0.026,0.19c-0.053,0.101 -0.112,0.062 -0.165,0.128c-0.05,0.062 -0.099,0.276 -0.079,0.362c-0.169,0.058 -0.009,0.227 -0.015,0.35c-0.002,0.05 -0.041,0.105 -0.045,0.161c-0.01,0.119 0.017,0.266 0.068,0.37c0.097,0.198 0.268,0.413 0.435,0.544c0.19,0.148 0.365,0.572 0.608,0.631c0.177,0.042 0.384,-0.104 0.543,-0.143c0.18,-0.043 0.397,0.01 0.571,-0.053c0.222,-0.079 0.127,-0.337 0.288,-0.45c0.104,-0.074 0.287,-0.01 0.406,-0.051c0.2,-0.069 0.339,-0.263 0.376,-0.46c0.016,-0.082 0.01,-0.145 0.039,-0.221c0.039,-0.103 0.111,-0.16 0.09,-0.293c-0.01,-0.062 -0.052,-0.12 -0.064,-0.187c-0.022,-0.114 0.002,-0.224 0,-0.337c-0.003,-0.2 0.017,-0.379 -0.078,-0.55c-0.38,-0.688 -1.236,-0.929 -1.975,-0.789c-0.18,0.034 -0.287,0.126 -0.442,0.207c-0.17,0.088 -0.139,0.166 -0.318,0.224c-0.081,0.026 -0.216,0.124 -0.215,0.224c0.001,0.115 0.005,0.051 0.012,0.169c-0.021,0.011 -0.021,-0.005 -0.03,-0.025"/>
      <path id="svg_70" fill="#FFFFFF" d="m15.816,-33.39c0.018,0.072 0.007,0.127 -0.026,0.19c-0.053,0.101 -0.112,0.062 -0.165,0.128c-0.05,0.062 -0.099,0.276 -0.079,0.362c-0.169,0.058 -0.009,0.227 -0.015,0.35c-0.002,0.05 -0.041,0.105 -0.045,0.161c-0.01,0.119 0.017,0.266 0.068,0.37c0.097,0.198 0.268,0.413 0.435,0.544c0.19,0.148 0.365,0.572 0.608,0.631c0.177,0.042 0.384,-0.104 0.543,-0.143c0.18,-0.043 0.397,0.01 0.571,-0.053c0.222,-0.079 0.127,-0.337 0.288,-0.45c0.104,-0.074 0.287,-0.01 0.406,-0.051c0.2,-0.069 0.339,-0.263 0.376,-0.46c0.016,-0.082 0.01,-0.145 0.039,-0.221c0.039,-0.103 0.111,-0.16 0.09,-0.293c-0.01,-0.062 -0.052,-0.12 -0.064,-0.187c-0.022,-0.114 0.002,-0.224 0,-0.337c-0.003,-0.2 0.017,-0.379 -0.078,-0.55c-0.38,-0.688 -1.236,-0.929 -1.975,-0.789c-0.18,0.034 -0.287,0.126 -0.442,0.207c-0.17,0.088 -0.139,0.166 -0.318,0.224c-0.081,0.026 -0.216,0.124 -0.215,0.224c0.001,0.115 0.005,0.051 0.012,0.169c-0.021,0.011 -0.021,-0.005 -0.03,-0.025"/>
      <path id="svg_71" fill="#FFFFFF" d="m8.156,-33.39c0.018,0.072 0.007,0.127 -0.026,0.19c-0.053,0.101 -0.112,0.062 -0.165,0.128c-0.05,0.062 -0.099,0.276 -0.079,0.362c-0.169,0.058 -0.009,0.227 -0.015,0.35c-0.002,0.05 -0.041,0.105 -0.045,0.161c-0.01,0.119 0.017,0.266 0.068,0.37c0.097,0.198 0.268,0.413 0.435,0.544c0.19,0.148 0.365,0.572 0.608,0.631c0.177,0.042 0.384,-0.104 0.543,-0.143c0.18,-0.043 0.397,0.01 0.571,-0.053c0.222,-0.079 0.127,-0.337 0.288,-0.45c0.104,-0.074 0.287,-0.01 0.406,-0.051c0.2,-0.069 0.339,-0.263 0.376,-0.46c0.016,-0.082 0.01,-0.145 0.039,-0.221c0.039,-0.103 0.111,-0.16 0.09,-0.293c-0.01,-0.062 -0.052,-0.12 -0.064,-0.187c-0.022,-0.114 0.002,-0.224 0,-0.337c-0.003,-0.2 0.017,-0.379 -0.078,-0.55c-0.38,-0.688 -1.236,-0.929 -1.975,-0.789c-0.18,0.034 -0.287,0.126 -0.442,0.207c-0.17,0.088 -0.139,0.166 -0.318,0.224c-0.081,0.026 -0.216,0.124 -0.215,0.224c0.001,0.115 0.005,0.051 0.012,0.169c-0.021,0.011 -0.021,-0.005 -0.03,-0.025"/>
      <path id="svg_72" fill="#FFFFFF" d="m0.495,-33.39c0.018,0.072 0.007,0.127 -0.026,0.19c-0.053,0.101 -0.112,0.062 -0.165,0.128c-0.05,0.062 -0.099,0.276 -0.079,0.362c-0.169,0.058 -0.01,0.227 -0.015,0.35c-0.002,0.05 -0.041,0.105 -0.045,0.161c-0.01,0.119 0.017,0.266 0.068,0.37c0.097,0.198 0.268,0.413 0.435,0.544c0.19,0.148 0.365,0.572 0.608,0.631c0.177,0.042 0.384,-0.104 0.543,-0.143c0.18,-0.043 0.397,0.01 0.571,-0.053c0.222,-0.079 0.127,-0.337 0.288,-0.45c0.104,-0.074 0.287,-0.01 0.406,-0.051c0.2,-0.069 0.339,-0.263 0.376,-0.46c0.016,-0.082 0.01,-0.145 0.039,-0.221c0.039,-0.103 0.111,-0.16 0.09,-0.293c-0.01,-0.062 -0.052,-0.12 -0.064,-0.187c-0.022,-0.114 0.002,-0.224 0,-0.337c-0.003,-0.2 0.017,-0.379 -0.078,-0.55c-0.38,-0.688 -1.236,-0.929 -1.975,-0.789c-0.18,0.034 -0.287,0.126 -0.442,0.207c-0.17,0.088 -0.139,0.166 -0.318,0.224c-0.081,0.026 -0.216,0.124 -0.215,0.224c0.003,0.117 0.006,0.053 0.013,0.171c-0.021,0.011 -0.021,-0.005 -0.03,-0.025"/>
     </g>
     <g id="svg_73">
      <path id="svg_74" fill="#FFFFFF" d="m69.439,-25.736c0.018,0.072 0.007,0.127 -0.026,0.19c-0.053,0.101 -0.112,0.062 -0.165,0.128c-0.05,0.062 -0.099,0.276 -0.079,0.362c-0.169,0.058 -0.01,0.227 -0.015,0.35c-0.002,0.05 -0.041,0.105 -0.045,0.161c-0.01,0.119 0.017,0.266 0.068,0.37c0.097,0.198 0.268,0.413 0.435,0.544c0.19,0.148 0.365,0.572 0.608,0.631c0.177,0.042 0.384,-0.104 0.543,-0.143c0.18,-0.043 0.397,0.01 0.571,-0.053c0.222,-0.079 0.127,-0.337 0.288,-0.45c0.104,-0.074 0.287,-0.01 0.406,-0.051c0.2,-0.069 0.339,-0.263 0.376,-0.46c0.016,-0.082 0.01,-0.145 0.039,-0.221c0.039,-0.103 0.111,-0.16 0.09,-0.293c-0.01,-0.062 -0.052,-0.12 -0.064,-0.187c-0.022,-0.114 0.002,-0.224 0,-0.337c-0.003,-0.2 0.017,-0.379 -0.078,-0.55c-0.38,-0.688 -1.236,-0.929 -1.975,-0.789c-0.18,0.034 -0.287,0.126 -0.442,0.207c-0.17,0.088 -0.139,0.166 -0.318,0.224c-0.081,0.026 -0.216,0.124 -0.215,0.224c0.001,0.115 0.005,0.051 0.012,0.169c-0.021,0.011 -0.021,-0.005 -0.03,-0.025"/>
      <path id="svg_75" fill="#FFFFFF" d="m61.778,-25.736c0.018,0.072 0.007,0.127 -0.026,0.19c-0.053,0.101 -0.112,0.062 -0.165,0.128c-0.05,0.062 -0.099,0.276 -0.079,0.362c-0.169,0.058 -0.009,0.227 -0.015,0.35c-0.002,0.05 -0.041,0.105 -0.045,0.161c-0.01,0.119 0.017,0.266 0.068,0.37c0.097,0.198 0.268,0.413 0.435,0.544c0.19,0.148 0.365,0.572 0.608,0.631c0.177,0.042 0.384,-0.104 0.543,-0.143c0.18,-0.043 0.397,0.01 0.571,-0.053c0.222,-0.079 0.127,-0.337 0.288,-0.45c0.104,-0.074 0.287,-0.01 0.406,-0.051c0.2,-0.069 0.339,-0.263 0.376,-0.46c0.016,-0.082 0.01,-0.145 0.039,-0.221c0.039,-0.103 0.111,-0.16 0.09,-0.293c-0.01,-0.062 -0.052,-0.12 -0.064,-0.187c-0.022,-0.114 0.002,-0.224 0,-0.337c-0.003,-0.2 0.017,-0.379 -0.078,-0.55c-0.38,-0.688 -1.236,-0.929 -1.975,-0.789c-0.18,0.034 -0.287,0.126 -0.442,0.207c-0.17,0.088 -0.139,0.166 -0.318,0.224c-0.081,0.026 -0.216,0.124 -0.215,0.224c0.001,0.115 0.005,0.051 0.012,0.169c-0.021,0.011 -0.021,-0.005 -0.03,-0.025"/>
      <path id="svg_76" fill="#FFFFFF" d="m54.118,-25.736c0.018,0.072 0.007,0.127 -0.026,0.19c-0.053,0.101 -0.112,0.062 -0.165,0.128c-0.05,0.062 -0.099,0.276 -0.079,0.362c-0.169,0.058 -0.009,0.227 -0.015,0.35c-0.002,0.05 -0.041,0.105 -0.045,0.161c-0.01,0.119 0.017,0.266 0.068,0.37c0.097,0.198 0.268,0.413 0.435,0.544c0.19,0.148 0.365,0.572 0.608,0.631c0.177,0.042 0.384,-0.104 0.543,-0.143c0.18,-0.043 0.397,0.01 0.571,-0.053c0.222,-0.079 0.127,-0.337 0.288,-0.45c0.104,-0.074 0.287,-0.01 0.406,-0.051c0.2,-0.069 0.339,-0.263 0.376,-0.46c0.016,-0.082 0.01,-0.145 0.039,-0.221c0.039,-0.103 0.111,-0.16 0.09,-0.293c-0.01,-0.062 -0.052,-0.12 -0.064,-0.187c-0.022,-0.114 0.002,-0.224 0,-0.337c-0.003,-0.2 0.017,-0.379 -0.078,-0.55c-0.38,-0.688 -1.236,-0.929 -1.975,-0.789c-0.18,0.034 -0.287,0.126 -0.442,0.207c-0.17,0.088 -0.139,0.166 -0.318,0.224c-0.081,0.026 -0.216,0.124 -0.215,0.224c0.001,0.115 0.005,0.051 0.012,0.169c-0.021,0.011 -0.021,-0.005 -0.03,-0.025"/>
      <path id="svg_77" fill="#FFFFFF" d="m46.458,-25.736c0.018,0.072 0.007,0.127 -0.026,0.19c-0.053,0.101 -0.112,0.062 -0.165,0.128c-0.05,0.062 -0.099,0.276 -0.079,0.362c-0.169,0.058 -0.009,0.227 -0.015,0.35c-0.002,0.05 -0.041,0.105 -0.045,0.161c-0.01,0.119 0.017,0.266 0.068,0.37c0.097,0.198 0.268,0.413 0.435,0.544c0.19,0.148 0.365,0.572 0.608,0.631c0.177,0.042 0.384,-0.104 0.543,-0.143c0.18,-0.043 0.397,0.01 0.571,-0.053c0.222,-0.079 0.127,-0.337 0.288,-0.45c0.104,-0.074 0.287,-0.01 0.406,-0.051c0.2,-0.069 0.339,-0.263 0.376,-0.46c0.016,-0.082 0.01,-0.145 0.039,-0.221c0.039,-0.103 0.111,-0.16 0.09,-0.293c-0.01,-0.062 -0.052,-0.12 -0.064,-0.187c-0.022,-0.114 0.002,-0.224 0,-0.337c-0.003,-0.2 0.017,-0.379 -0.078,-0.55c-0.38,-0.688 -1.236,-0.929 -1.975,-0.789c-0.18,0.034 -0.287,0.126 -0.442,0.207c-0.17,0.088 -0.139,0.166 -0.318,0.224c-0.081,0.026 -0.216,0.124 -0.215,0.224c0.001,0.115 0.005,0.051 0.012,0.169c-0.021,0.011 -0.021,-0.005 -0.03,-0.025"/>
      <path id="svg_78" fill="#FFFFFF" d="m38.797,-25.736c0.018,0.072 0.007,0.127 -0.026,0.19c-0.053,0.101 -0.112,0.062 -0.165,0.128c-0.05,0.062 -0.099,0.276 -0.079,0.362c-0.169,0.058 -0.009,0.227 -0.015,0.35c-0.002,0.05 -0.041,0.105 -0.045,0.161c-0.01,0.119 0.017,0.266 0.068,0.37c0.097,0.198 0.268,0.413 0.435,0.544c0.19,0.148 0.365,0.572 0.608,0.631c0.177,0.042 0.384,-0.104 0.543,-0.143c0.18,-0.043 0.397,0.01 0.571,-0.053c0.222,-0.079 0.127,-0.337 0.288,-0.45c0.104,-0.074 0.287,-0.01 0.406,-0.051c0.2,-0.069 0.339,-0.263 0.376,-0.46c0.016,-0.082 0.01,-0.145 0.039,-0.221c0.039,-0.103 0.111,-0.16 0.09,-0.293c-0.01,-0.062 -0.052,-0.12 -0.064,-0.187c-0.022,-0.114 0.002,-0.224 0,-0.337c-0.003,-0.2 0.017,-0.379 -0.078,-0.55c-0.38,-0.688 -1.236,-0.929 -1.975,-0.789c-0.18,0.034 -0.287,0.126 -0.442,0.207c-0.17,0.088 -0.139,0.166 -0.318,0.224c-0.081,0.026 -0.216,0.124 -0.215,0.224c0.001,0.115 0.005,0.051 0.012,0.169c-0.021,0.011 -0.021,-0.005 -0.03,-0.025"/>
      <path id="svg_79" fill="#FFFFFF" d="m31.137,-25.736c0.018,0.072 0.007,0.127 -0.026,0.19c-0.053,0.101 -0.112,0.062 -0.165,0.128c-0.05,0.062 -0.099,0.276 -0.079,0.362c-0.169,0.058 -0.009,0.227 -0.015,0.35c-0.002,0.05 -0.041,0.105 -0.045,0.161c-0.01,0.119 0.017,0.266 0.068,0.37c0.097,0.198 0.268,0.413 0.435,0.544c0.19,0.148 0.365,0.572 0.608,0.631c0.177,0.042 0.384,-0.104 0.543,-0.143c0.18,-0.043 0.397,0.01 0.571,-0.053c0.222,-0.079 0.127,-0.337 0.288,-0.45c0.104,-0.074 0.287,-0.01 0.406,-0.051c0.2,-0.069 0.339,-0.263 0.376,-0.46c0.016,-0.082 0.01,-0.145 0.039,-0.221c0.039,-0.103 0.111,-0.16 0.09,-0.293c-0.01,-0.062 -0.052,-0.12 -0.064,-0.187c-0.022,-0.114 0.002,-0.224 0,-0.337c-0.003,-0.2 0.017,-0.379 -0.078,-0.55c-0.38,-0.688 -1.236,-0.929 -1.975,-0.789c-0.18,0.034 -0.287,0.126 -0.442,0.207c-0.17,0.088 -0.139,0.166 -0.318,0.224c-0.081,0.026 -0.216,0.124 -0.215,0.224c0.001,0.115 0.005,0.051 0.012,0.169c-0.021,0.011 -0.021,-0.005 -0.03,-0.025"/>
      <path id="svg_80" fill="#FFFFFF" d="m23.477,-25.736c0.018,0.072 0.007,0.127 -0.026,0.19c-0.053,0.101 -0.112,0.062 -0.165,0.128c-0.05,0.062 -0.099,0.276 -0.079,0.362c-0.169,0.058 -0.009,0.227 -0.015,0.35c-0.002,0.05 -0.041,0.105 -0.045,0.161c-0.01,0.119 0.017,0.266 0.068,0.37c0.097,0.198 0.268,0.413 0.435,0.544c0.19,0.148 0.365,0.572 0.608,0.631c0.177,0.042 0.384,-0.104 0.543,-0.143c0.18,-0.043 0.397,0.01 0.571,-0.053c0.222,-0.079 0.127,-0.337 0.288,-0.45c0.104,-0.074 0.287,-0.01 0.406,-0.051c0.2,-0.069 0.339,-0.263 0.376,-0.46c0.016,-0.082 0.01,-0.145 0.039,-0.221c0.039,-0.103 0.111,-0.16 0.09,-0.293c-0.01,-0.062 -0.052,-0.12 -0.064,-0.187c-0.022,-0.114 0.002,-0.224 0,-0.337c-0.003,-0.2 0.017,-0.379 -0.078,-0.55c-0.38,-0.688 -1.236,-0.929 -1.975,-0.789c-0.18,0.034 -0.287,0.126 -0.442,0.207c-0.17,0.088 -0.139,0.166 -0.318,0.224c-0.081,0.026 -0.216,0.124 -0.215,0.224c0.001,0.115 0.005,0.051 0.012,0.169c-0.021,0.011 -0.021,-0.005 -0.03,-0.025"/>
      <path id="svg_81" fill="#FFFFFF" d="m15.816,-25.736c0.018,0.072 0.007,0.127 -0.026,0.19c-0.053,0.101 -0.112,0.062 -0.165,0.128c-0.05,0.062 -0.099,0.276 -0.079,0.362c-0.169,0.058 -0.009,0.227 -0.015,0.35c-0.002,0.05 -0.041,0.105 -0.045,0.161c-0.01,0.119 0.017,0.266 0.068,0.37c0.097,0.198 0.268,0.413 0.435,0.544c0.19,0.148 0.365,0.572 0.608,0.631c0.177,0.042 0.384,-0.104 0.543,-0.143c0.18,-0.043 0.397,0.01 0.571,-0.053c0.222,-0.079 0.127,-0.337 0.288,-0.45c0.104,-0.074 0.287,-0.01 0.406,-0.051c0.2,-0.069 0.339,-0.263 0.376,-0.46c0.016,-0.082 0.01,-0.145 0.039,-0.221c0.039,-0.103 0.111,-0.16 0.09,-0.293c-0.01,-0.062 -0.052,-0.12 -0.064,-0.187c-0.022,-0.114 0.002,-0.224 0,-0.337c-0.003,-0.2 0.017,-0.379 -0.078,-0.55c-0.38,-0.688 -1.236,-0.929 -1.975,-0.789c-0.18,0.034 -0.287,0.126 -0.442,0.207c-0.17,0.088 -0.139,0.166 -0.318,0.224c-0.081,0.026 -0.216,0.124 -0.215,0.224c0.001,0.115 0.005,0.051 0.012,0.169c-0.021,0.011 -0.021,-0.005 -0.03,-0.025"/>
      <path id="svg_82" fill="#FFFFFF" d="m8.156,-25.736c0.018,0.072 0.007,0.127 -0.026,0.19c-0.053,0.101 -0.112,0.062 -0.165,0.128c-0.05,0.062 -0.099,0.276 -0.079,0.362c-0.169,0.058 -0.009,0.227 -0.015,0.35c-0.002,0.05 -0.041,0.105 -0.045,0.161c-0.01,0.119 0.017,0.266 0.068,0.37c0.097,0.198 0.268,0.413 0.435,0.544c0.19,0.148 0.365,0.572 0.608,0.631c0.177,0.042 0.384,-0.104 0.543,-0.143c0.18,-0.043 0.397,0.01 0.571,-0.053c0.222,-0.079 0.127,-0.337 0.288,-0.45c0.104,-0.074 0.287,-0.01 0.406,-0.051c0.2,-0.069 0.339,-0.263 0.376,-0.46c0.016,-0.082 0.01,-0.145 0.039,-0.221c0.039,-0.103 0.111,-0.16 0.09,-0.293c-0.01,-0.062 -0.052,-0.12 -0.064,-0.187c-0.022,-0.114 0.002,-0.224 0,-0.337c-0.003,-0.2 0.017,-0.379 -0.078,-0.55c-0.38,-0.688 -1.236,-0.929 -1.975,-0.789c-0.18,0.034 -0.287,0.126 -0.442,0.207c-0.17,0.088 -0.139,0.166 -0.318,0.224c-0.081,0.026 -0.216,0.124 -0.215,0.224c0.001,0.115 0.005,0.051 0.012,0.169c-0.021,0.011 -0.021,-0.005 -0.03,-0.025"/>
      <path id="svg_83" fill="#FFFFFF" d="m0.495,-25.736c0.018,0.072 0.007,0.127 -0.026,0.19c-0.053,0.101 -0.112,0.062 -0.165,0.128c-0.05,0.062 -0.099,0.276 -0.079,0.362c-0.169,0.058 -0.01,0.227 -0.015,0.35c-0.002,0.05 -0.041,0.105 -0.045,0.161c-0.01,0.119 0.017,0.266 0.068,0.37c0.097,0.198 0.268,0.413 0.435,0.544c0.19,0.148 0.365,0.572 0.608,0.631c0.177,0.042 0.384,-0.104 0.543,-0.143c0.18,-0.043 0.397,0.01 0.571,-0.053c0.222,-0.079 0.127,-0.337 0.288,-0.45c0.104,-0.074 0.287,-0.01 0.406,-0.051c0.2,-0.069 0.339,-0.263 0.376,-0.46c0.016,-0.082 0.01,-0.145 0.039,-0.221c0.039,-0.103 0.111,-0.16 0.09,-0.293c-0.01,-0.062 -0.052,-0.12 -0.064,-0.187c-0.022,-0.114 0.002,-0.224 0,-0.337c-0.003,-0.2 0.017,-0.379 -0.078,-0.55c-0.38,-0.688 -1.236,-0.929 -1.975,-0.789c-0.18,0.034 -0.287,0.126 -0.442,0.207c-0.17,0.088 -0.139,0.166 -0.318,0.224c-0.081,0.026 -0.216,0.124 -0.215,0.224c0.001,0.115 0.005,0.051 0.012,0.169c-0.021,0.011 -0.021,-0.005 -0.03,-0.025"/>
     </g>
     <g id="svg_84">
      <path id="svg_85" fill="#FFFFFF" d="m69.439,-18.084c0.018,0.072 0.007,0.127 -0.026,0.19c-0.053,0.101 -0.112,0.062 -0.165,0.128c-0.05,0.062 -0.099,0.276 -0.079,0.362c-0.169,0.058 -0.01,0.227 -0.015,0.35c-0.002,0.05 -0.041,0.105 -0.045,0.161c-0.01,0.119 0.017,0.266 0.068,0.37c0.097,0.198 0.268,0.413 0.435,0.544c0.19,0.148 0.365,0.572 0.608,0.631c0.177,0.042 0.384,-0.104 0.543,-0.143c0.18,-0.043 0.397,0.01 0.571,-0.053c0.222,-0.079 0.127,-0.337 0.288,-0.45c0.104,-0.074 0.287,-0.01 0.406,-0.051c0.2,-0.069 0.339,-0.263 0.376,-0.46c0.016,-0.082 0.01,-0.145 0.039,-0.221c0.039,-0.103 0.111,-0.16 0.09,-0.293c-0.01,-0.062 -0.052,-0.12 -0.064,-0.187c-0.022,-0.114 0.002,-0.224 0,-0.337c-0.003,-0.2 0.017,-0.379 -0.078,-0.55c-0.38,-0.688 -1.236,-0.929 -1.975,-0.789c-0.18,0.034 -0.287,0.126 -0.442,0.207c-0.17,0.088 -0.139,0.166 -0.318,0.224c-0.081,0.026 -0.216,0.124 -0.215,0.224c0.001,0.115 0.005,0.051 0.012,0.169c-0.021,0.011 -0.021,-0.005 -0.03,-0.025"/>
      <path id="svg_86" fill="#FFFFFF" d="m61.778,-18.084c0.018,0.072 0.007,0.127 -0.026,0.19c-0.053,0.101 -0.112,0.062 -0.165,0.128c-0.05,0.062 -0.099,0.276 -0.079,0.362c-0.169,0.058 -0.009,0.227 -0.015,0.35c-0.002,0.05 -0.041,0.105 -0.045,0.161c-0.01,0.119 0.017,0.266 0.068,0.37c0.097,0.198 0.268,0.413 0.435,0.544c0.19,0.148 0.365,0.572 0.608,0.631c0.177,0.042 0.384,-0.104 0.543,-0.143c0.18,-0.043 0.397,0.01 0.571,-0.053c0.222,-0.079 0.127,-0.337 0.288,-0.45c0.104,-0.074 0.287,-0.01 0.406,-0.051c0.2,-0.069 0.339,-0.263 0.376,-0.46c0.016,-0.082 0.01,-0.145 0.039,-0.221c0.039,-0.103 0.111,-0.16 0.09,-0.293c-0.01,-0.062 -0.052,-0.12 -0.064,-0.187c-0.022,-0.114 0.002,-0.224 0,-0.337c-0.003,-0.2 0.017,-0.379 -0.078,-0.55c-0.38,-0.688 -1.236,-0.929 -1.975,-0.789c-0.18,0.034 -0.287,0.126 -0.442,0.207c-0.17,0.088 -0.139,0.166 -0.318,0.224c-0.081,0.026 -0.216,0.124 -0.215,0.224c0.001,0.115 0.005,0.051 0.012,0.169c-0.021,0.011 -0.021,-0.005 -0.03,-0.025"/>
      <path id="svg_87" fill="#FFFFFF" d="m54.118,-18.084c0.018,0.072 0.007,0.127 -0.026,0.19c-0.053,0.101 -0.112,0.062 -0.165,0.128c-0.05,0.062 -0.099,0.276 -0.079,0.362c-0.169,0.058 -0.009,0.227 -0.015,0.35c-0.002,0.05 -0.041,0.105 -0.045,0.161c-0.01,0.119 0.017,0.266 0.068,0.37c0.097,0.198 0.268,0.413 0.435,0.544c0.19,0.148 0.365,0.572 0.608,0.631c0.177,0.042 0.384,-0.104 0.543,-0.143c0.18,-0.043 0.397,0.01 0.571,-0.053c0.222,-0.079 0.127,-0.337 0.288,-0.45c0.104,-0.074 0.287,-0.01 0.406,-0.051c0.2,-0.069 0.339,-0.263 0.376,-0.46c0.016,-0.082 0.01,-0.145 0.039,-0.221c0.039,-0.103 0.111,-0.16 0.09,-0.293c-0.01,-0.062 -0.052,-0.12 -0.064,-0.187c-0.022,-0.114 0.002,-0.224 0,-0.337c-0.003,-0.2 0.017,-0.379 -0.078,-0.55c-0.38,-0.688 -1.236,-0.929 -1.975,-0.789c-0.18,0.034 -0.287,0.126 -0.442,0.207c-0.17,0.088 -0.139,0.166 -0.318,0.224c-0.081,0.026 -0.216,0.124 -0.215,0.224c0.001,0.115 0.005,0.051 0.012,0.169c-0.021,0.011 -0.021,-0.005 -0.03,-0.025"/>
      <path id="svg_88" fill="#FFFFFF" d="m46.458,-18.084c0.018,0.072 0.007,0.127 -0.026,0.19c-0.053,0.101 -0.112,0.062 -0.165,0.128c-0.05,0.062 -0.099,0.276 -0.079,0.362c-0.169,0.058 -0.009,0.227 -0.015,0.35c-0.002,0.05 -0.041,0.105 -0.045,0.161c-0.01,0.119 0.017,0.266 0.068,0.37c0.097,0.198 0.268,0.413 0.435,0.544c0.19,0.148 0.365,0.572 0.608,0.631c0.177,0.042 0.384,-0.104 0.543,-0.143c0.18,-0.043 0.397,0.01 0.571,-0.053c0.222,-0.079 0.127,-0.337 0.288,-0.45c0.104,-0.074 0.287,-0.01 0.406,-0.051c0.2,-0.069 0.339,-0.263 0.376,-0.46c0.016,-0.082 0.01,-0.145 0.039,-0.221c0.039,-0.103 0.111,-0.16 0.09,-0.293c-0.01,-0.062 -0.052,-0.12 -0.064,-0.187c-0.022,-0.114 0.002,-0.224 0,-0.337c-0.003,-0.2 0.017,-0.379 -0.078,-0.55c-0.38,-0.688 -1.236,-0.929 -1.975,-0.789c-0.18,0.034 -0.287,0.126 -0.442,0.207c-0.17,0.088 -0.139,0.166 -0.318,0.224c-0.081,0.026 -0.216,0.124 -0.215,0.224c0.001,0.115 0.005,0.051 0.012,0.169c-0.021,0.011 -0.021,-0.005 -0.03,-0.025"/>
      <path id="svg_89" fill="#FFFFFF" d="m38.797,-18.084c0.018,0.072 0.007,0.127 -0.026,0.19c-0.053,0.101 -0.112,0.062 -0.165,0.128c-0.05,0.062 -0.099,0.276 -0.079,0.362c-0.169,0.058 -0.009,0.227 -0.015,0.35c-0.002,0.05 -0.041,0.105 -0.045,0.161c-0.01,0.119 0.017,0.266 0.068,0.37c0.097,0.198 0.268,0.413 0.435,0.544c0.19,0.148 0.365,0.572 0.608,0.631c0.177,0.042 0.384,-0.104 0.543,-0.143c0.18,-0.043 0.397,0.01 0.571,-0.053c0.222,-0.079 0.127,-0.337 0.288,-0.45c0.104,-0.074 0.287,-0.01 0.406,-0.051c0.2,-0.069 0.339,-0.263 0.376,-0.46c0.016,-0.082 0.01,-0.145 0.039,-0.221c0.039,-0.103 0.111,-0.16 0.09,-0.293c-0.01,-0.062 -0.052,-0.12 -0.064,-0.187c-0.022,-0.114 0.002,-0.224 0,-0.337c-0.003,-0.2 0.017,-0.379 -0.078,-0.55c-0.38,-0.688 -1.236,-0.929 -1.975,-0.789c-0.18,0.034 -0.287,0.126 -0.442,0.207c-0.17,0.088 -0.139,0.166 -0.318,0.224c-0.081,0.026 -0.216,0.124 -0.215,0.224c0.001,0.115 0.005,0.051 0.012,0.169c-0.021,0.011 -0.021,-0.005 -0.03,-0.025"/>
      <path id="svg_90" fill="#FFFFFF" d="m31.137,-18.084c0.018,0.072 0.007,0.127 -0.026,0.19c-0.053,0.101 -0.112,0.062 -0.165,0.128c-0.05,0.062 -0.099,0.276 -0.079,0.362c-0.169,0.058 -0.009,0.227 -0.015,0.35c-0.002,0.05 -0.041,0.105 -0.045,0.161c-0.01,0.119 0.017,0.266 0.068,0.37c0.097,0.198 0.268,0.413 0.435,0.544c0.19,0.148 0.365,0.572 0.608,0.631c0.177,0.042 0.384,-0.104 0.543,-0.143c0.18,-0.043 0.397,0.01 0.571,-0.053c0.222,-0.079 0.127,-0.337 0.288,-0.45c0.104,-0.074 0.287,-0.01 0.406,-0.051c0.2,-0.069 0.339,-0.263 0.376,-0.46c0.016,-0.082 0.01,-0.145 0.039,-0.221c0.039,-0.103 0.111,-0.16 0.09,-0.293c-0.01,-0.062 -0.052,-0.12 -0.064,-0.187c-0.022,-0.114 0.002,-0.224 0,-0.337c-0.003,-0.2 0.017,-0.379 -0.078,-0.55c-0.38,-0.688 -1.236,-0.929 -1.975,-0.789c-0.18,0.034 -0.287,0.126 -0.442,0.207c-0.17,0.088 -0.139,0.166 -0.318,0.224c-0.081,0.026 -0.216,0.124 -0.215,0.224c0.001,0.115 0.005,0.051 0.012,0.169c-0.021,0.011 -0.021,-0.005 -0.03,-0.025"/>
      <path id="svg_91" fill="#FFFFFF" d="m23.477,-18.084c0.018,0.072 0.007,0.127 -0.026,0.19c-0.053,0.101 -0.112,0.062 -0.165,0.128c-0.05,0.062 -0.099,0.276 -0.079,0.362c-0.169,0.058 -0.009,0.227 -0.015,0.35c-0.002,0.05 -0.041,0.105 -0.045,0.161c-0.01,0.119 0.017,0.266 0.068,0.37c0.097,0.198 0.268,0.413 0.435,0.544c0.19,0.148 0.365,0.572 0.608,0.631c0.177,0.042 0.384,-0.104 0.543,-0.143c0.18,-0.043 0.397,0.01 0.571,-0.053c0.222,-0.079 0.127,-0.337 0.288,-0.45c0.104,-0.074 0.287,-0.01 0.406,-0.051c0.2,-0.069 0.339,-0.263 0.376,-0.46c0.016,-0.082 0.01,-0.145 0.039,-0.221c0.039,-0.103 0.111,-0.16 0.09,-0.293c-0.01,-0.062 -0.052,-0.12 -0.064,-0.187c-0.022,-0.114 0.002,-0.224 0,-0.337c-0.003,-0.2 0.017,-0.379 -0.078,-0.55c-0.38,-0.688 -1.236,-0.929 -1.975,-0.789c-0.18,0.034 -0.287,0.126 -0.442,0.207c-0.17,0.088 -0.139,0.166 -0.318,0.224c-0.081,0.026 -0.216,0.124 -0.215,0.224c0.001,0.115 0.005,0.051 0.012,0.169c-0.021,0.011 -0.021,-0.005 -0.03,-0.025"/>
      <path id="svg_92" fill="#FFFFFF" d="m15.816,-18.084c0.018,0.072 0.007,0.127 -0.026,0.19c-0.053,0.101 -0.112,0.062 -0.165,0.128c-0.05,0.062 -0.099,0.276 -0.079,0.362c-0.169,0.058 -0.009,0.227 -0.015,0.35c-0.002,0.05 -0.041,0.105 -0.045,0.161c-0.01,0.119 0.017,0.266 0.068,0.37c0.097,0.198 0.268,0.413 0.435,0.544c0.19,0.148 0.365,0.572 0.608,0.631c0.177,0.042 0.384,-0.104 0.543,-0.143c0.18,-0.043 0.397,0.01 0.571,-0.053c0.222,-0.079 0.127,-0.337 0.288,-0.45c0.104,-0.074 0.287,-0.01 0.406,-0.051c0.2,-0.069 0.339,-0.263 0.376,-0.46c0.016,-0.082 0.01,-0.145 0.039,-0.221c0.039,-0.103 0.111,-0.16 0.09,-0.293c-0.01,-0.062 -0.052,-0.12 -0.064,-0.187c-0.022,-0.114 0.002,-0.224 0,-0.337c-0.003,-0.2 0.017,-0.379 -0.078,-0.55c-0.38,-0.688 -1.236,-0.929 -1.975,-0.789c-0.18,0.034 -0.287,0.126 -0.442,0.207c-0.17,0.088 -0.139,0.166 -0.318,0.224c-0.081,0.026 -0.216,0.124 -0.215,0.224c0.001,0.115 0.005,0.051 0.012,0.169c-0.021,0.011 -0.021,-0.005 -0.03,-0.025"/>
      <path id="svg_93" fill="#FFFFFF" d="m8.156,-18.084c0.018,0.072 0.007,0.127 -0.026,0.19c-0.053,0.101 -0.112,0.062 -0.165,0.128c-0.05,0.062 -0.099,0.276 -0.079,0.362c-0.169,0.058 -0.009,0.227 -0.015,0.35c-0.002,0.05 -0.041,0.105 -0.045,0.161c-0.01,0.119 0.017,0.266 0.068,0.37c0.097,0.198 0.268,0.413 0.435,0.544c0.19,0.148 0.365,0.572 0.608,0.631c0.177,0.042 0.384,-0.104 0.543,-0.143c0.18,-0.043 0.397,0.01 0.571,-0.053c0.222,-0.079 0.127,-0.337 0.288,-0.45c0.104,-0.074 0.287,-0.01 0.406,-0.051c0.2,-0.069 0.339,-0.263 0.376,-0.46c0.016,-0.082 0.01,-0.145 0.039,-0.221c0.039,-0.103 0.111,-0.16 0.09,-0.293c-0.01,-0.062 -0.052,-0.12 -0.064,-0.187c-0.022,-0.114 0.002,-0.224 0,-0.337c-0.003,-0.2 0.017,-0.379 -0.078,-0.55c-0.38,-0.688 -1.236,-0.929 -1.975,-0.789c-0.18,0.034 -0.287,0.126 -0.442,0.207c-0.17,0.088 -0.139,0.166 -0.318,0.224c-0.081,0.026 -0.216,0.124 -0.215,0.224c0.001,0.115 0.005,0.051 0.012,0.169c-0.021,0.011 -0.021,-0.005 -0.03,-0.025"/>
      <path id="svg_94" fill="#FFFFFF" d="m0.495,-18.084c0.018,0.072 0.007,0.127 -0.026,0.19c-0.053,0.101 -0.112,0.062 -0.165,0.128c-0.05,0.062 -0.099,0.276 -0.079,0.362c-0.169,0.058 -0.01,0.227 -0.015,0.35c-0.002,0.05 -0.041,0.105 -0.045,0.161c-0.01,0.119 0.017,0.266 0.068,0.37c0.097,0.198 0.268,0.413 0.435,0.544c0.19,0.148 0.365,0.572 0.608,0.631c0.177,0.042 0.384,-0.104 0.543,-0.143c0.18,-0.043 0.397,0.01 0.571,-0.053c0.222,-0.079 0.127,-0.337 0.288,-0.45c0.104,-0.074 0.287,-0.01 0.406,-0.051c0.2,-0.069 0.339,-0.263 0.376,-0.46c0.016,-0.082 0.01,-0.145 0.039,-0.221c0.039,-0.103 0.111,-0.16 0.09,-0.293c-0.01,-0.062 -0.052,-0.12 -0.064,-0.187c-0.022,-0.114 0.002,-0.224 0,-0.337c-0.003,-0.2 0.017,-0.379 -0.078,-0.55c-0.38,-0.688 -1.236,-0.929 -1.975,-0.789c-0.18,0.034 -0.287,0.126 -0.442,0.207c-0.17,0.088 -0.139,0.166 -0.318,0.224c-0.081,0.026 -0.216,0.124 -0.215,0.224c0.003,0.117 0.006,0.052 0.013,0.17c-0.021,0.011 -0.021,-0.005 -0.03,-0.025"/>
     </g>
     <g id="svg_95">
      <path id="svg_96" fill="#FFFFFF" d="m69.439,-10.431c0.018,0.072 0.007,0.127 -0.026,0.19c-0.053,0.101 -0.112,0.062 -0.165,0.128c-0.05,0.062 -0.099,0.276 -0.079,0.362c-0.169,0.059 -0.01,0.228 -0.015,0.351c-0.002,0.05 -0.041,0.105 -0.045,0.161c-0.01,0.119 0.017,0.266 0.068,0.37c0.097,0.198 0.268,0.413 0.435,0.544c0.19,0.148 0.365,0.572 0.608,0.631c0.177,0.042 0.384,-0.104 0.543,-0.143c0.18,-0.043 0.397,0.01 0.571,-0.053c0.222,-0.079 0.127,-0.337 0.288,-0.45c0.104,-0.074 0.287,-0.01 0.406,-0.051c0.2,-0.069 0.339,-0.263 0.376,-0.46c0.016,-0.082 0.01,-0.145 0.039,-0.221c0.039,-0.103 0.111,-0.16 0.09,-0.293c-0.01,-0.062 -0.052,-0.12 -0.064,-0.187c-0.022,-0.114 0.002,-0.224 0,-0.337c-0.003,-0.2 0.017,-0.379 -0.078,-0.55c-0.38,-0.688 -1.236,-0.929 -1.975,-0.789c-0.18,0.034 -0.287,0.126 -0.442,0.207c-0.17,0.088 -0.139,0.166 -0.318,0.224c-0.081,0.026 -0.216,0.124 -0.215,0.224c0.001,0.115 0.005,0.051 0.012,0.169c-0.021,0.011 -0.021,-0.005 -0.03,-0.025"/>
      <path id="svg_97" fill="#FFFFFF" d="m61.778,-10.431c0.018,0.072 0.007,0.127 -0.026,0.19c-0.053,0.101 -0.112,0.062 -0.165,0.128c-0.05,0.062 -0.099,0.276 -0.079,0.362c-0.169,0.058 -0.009,0.227 -0.015,0.35c-0.002,0.05 -0.041,0.105 -0.045,0.161c-0.01,0.119 0.017,0.266 0.068,0.37c0.097,0.198 0.268,0.413 0.435,0.544c0.19,0.148 0.365,0.572 0.608,0.631c0.177,0.042 0.384,-0.104 0.543,-0.143c0.18,-0.043 0.397,0.01 0.571,-0.053c0.222,-0.079 0.127,-0.337 0.288,-0.45c0.104,-0.074 0.287,-0.01 0.406,-0.051c0.2,-0.069 0.339,-0.263 0.376,-0.46c0.016,-0.082 0.01,-0.145 0.039,-0.221c0.039,-0.103 0.111,-0.16 0.09,-0.293c-0.01,-0.062 -0.052,-0.12 -0.064,-0.187c-0.022,-0.114 0.002,-0.224 0,-0.337c-0.003,-0.2 0.017,-0.379 -0.078,-0.55c-0.38,-0.688 -1.236,-0.929 -1.975,-0.789c-0.18,0.034 -0.287,0.126 -0.442,0.207c-0.17,0.088 -0.139,0.166 -0.318,0.224c-0.081,0.026 -0.216,0.124 -0.215,0.224c0.001,0.115 0.005,0.051 0.012,0.169c-0.021,0.011 -0.021,-0.005 -0.03,-0.025"/>
      <path id="svg_98" fill="#FFFFFF" d="m54.118,-10.431c0.018,0.072 0.007,0.127 -0.026,0.19c-0.053,0.101 -0.112,0.062 -0.165,0.128c-0.05,0.062 -0.099,0.276 -0.079,0.362c-0.169,0.058 -0.009,0.227 -0.015,0.35c-0.002,0.05 -0.041,0.105 -0.045,0.161c-0.01,0.119 0.017,0.266 0.068,0.37c0.097,0.198 0.268,0.413 0.435,0.544c0.19,0.148 0.365,0.572 0.608,0.631c0.177,0.042 0.384,-0.104 0.543,-0.143c0.18,-0.043 0.397,0.01 0.571,-0.053c0.222,-0.079 0.127,-0.337 0.288,-0.45c0.104,-0.074 0.287,-0.01 0.406,-0.051c0.2,-0.069 0.339,-0.263 0.376,-0.46c0.016,-0.082 0.01,-0.145 0.039,-0.221c0.039,-0.103 0.111,-0.16 0.09,-0.293c-0.01,-0.062 -0.052,-0.12 -0.064,-0.187c-0.022,-0.114 0.002,-0.224 0,-0.337c-0.003,-0.2 0.017,-0.379 -0.078,-0.55c-0.38,-0.688 -1.236,-0.929 -1.975,-0.789c-0.18,0.034 -0.287,0.126 -0.442,0.207c-0.17,0.088 -0.139,0.166 -0.318,0.224c-0.081,0.026 -0.216,0.124 -0.215,0.224c0.001,0.115 0.005,0.051 0.012,0.169c-0.021,0.011 -0.021,-0.005 -0.03,-0.025"/>
      <path id="svg_99" fill="#FFFFFF" d="m46.458,-10.431c0.018,0.072 0.007,0.127 -0.026,0.19c-0.053,0.101 -0.112,0.062 -0.165,0.128c-0.05,0.062 -0.099,0.276 -0.079,0.362c-0.169,0.058 -0.009,0.227 -0.015,0.35c-0.002,0.05 -0.041,0.105 -0.045,0.161c-0.01,0.119 0.017,0.266 0.068,0.37c0.097,0.198 0.268,0.413 0.435,0.544c0.19,0.148 0.365,0.572 0.608,0.631c0.177,0.042 0.384,-0.104 0.543,-0.143c0.18,-0.043 0.397,0.01 0.571,-0.053c0.222,-0.079 0.127,-0.337 0.288,-0.45c0.104,-0.074 0.287,-0.01 0.406,-0.051c0.2,-0.069 0.339,-0.263 0.376,-0.46c0.016,-0.082 0.01,-0.145 0.039,-0.221c0.039,-0.103 0.111,-0.16 0.09,-0.293c-0.01,-0.062 -0.052,-0.12 -0.064,-0.187c-0.022,-0.114 0.002,-0.224 0,-0.337c-0.003,-0.2 0.017,-0.379 -0.078,-0.55c-0.38,-0.688 -1.236,-0.929 -1.975,-0.789c-0.18,0.034 -0.287,0.126 -0.442,0.207c-0.17,0.088 -0.139,0.166 -0.318,0.224c-0.081,0.026 -0.216,0.124 -0.215,0.224c0.001,0.115 0.005,0.051 0.012,0.169c-0.021,0.011 -0.021,-0.005 -0.03,-0.025"/>
      <path id="svg_100" fill="#FFFFFF" d="m38.797,-10.431c0.018,0.072 0.007,0.127 -0.026,0.19c-0.053,0.101 -0.112,0.062 -0.165,0.128c-0.05,0.062 -0.099,0.276 -0.079,0.362c-0.169,0.058 -0.009,0.227 -0.015,0.35c-0.002,0.05 -0.041,0.105 -0.045,0.161c-0.01,0.119 0.017,0.266 0.068,0.37c0.097,0.198 0.268,0.413 0.435,0.544c0.19,0.148 0.365,0.572 0.608,0.631c0.177,0.042 0.384,-0.104 0.543,-0.143c0.18,-0.043 0.397,0.01 0.571,-0.053c0.222,-0.079 0.127,-0.337 0.288,-0.45c0.104,-0.074 0.287,-0.01 0.406,-0.051c0.2,-0.069 0.339,-0.263 0.376,-0.46c0.016,-0.082 0.01,-0.145 0.039,-0.221c0.039,-0.103 0.111,-0.16 0.09,-0.293c-0.01,-0.062 -0.052,-0.12 -0.064,-0.187c-0.022,-0.114 0.002,-0.224 0,-0.337c-0.003,-0.2 0.017,-0.379 -0.078,-0.55c-0.38,-0.688 -1.236,-0.929 -1.975,-0.789c-0.18,0.034 -0.287,0.126 -0.442,0.207c-0.17,0.088 -0.139,0.166 -0.318,0.224c-0.081,0.026 -0.216,0.124 -0.215,0.224c0.001,0.115 0.005,0.051 0.012,0.169c-0.021,0.011 -0.021,-0.005 -0.03,-0.025"/>
      <path id="svg_101" fill="#FFFFFF" d="m31.137,-10.431c0.018,0.072 0.007,0.127 -0.026,0.19c-0.053,0.101 -0.112,0.062 -0.165,0.128c-0.05,0.062 -0.099,0.276 -0.079,0.362c-0.169,0.058 -0.009,0.227 -0.015,0.35c-0.002,0.05 -0.041,0.105 -0.045,0.161c-0.01,0.119 0.017,0.266 0.068,0.37c0.097,0.198 0.268,0.413 0.435,0.544c0.19,0.148 0.365,0.572 0.608,0.631c0.177,0.042 0.384,-0.104 0.543,-0.143c0.18,-0.043 0.397,0.01 0.571,-0.053c0.222,-0.079 0.127,-0.337 0.288,-0.45c0.104,-0.074 0.287,-0.01 0.406,-0.051c0.2,-0.069 0.339,-0.263 0.376,-0.46c0.016,-0.082 0.01,-0.145 0.039,-0.221c0.039,-0.103 0.111,-0.16 0.09,-0.293c-0.01,-0.062 -0.052,-0.12 -0.064,-0.187c-0.022,-0.114 0.002,-0.224 0,-0.337c-0.003,-0.2 0.017,-0.379 -0.078,-0.55c-0.38,-0.688 -1.236,-0.929 -1.975,-0.789c-0.18,0.034 -0.287,0.126 -0.442,0.207c-0.17,0.088 -0.139,0.166 -0.318,0.224c-0.081,0.026 -0.216,0.124 -0.215,0.224c0.001,0.115 0.005,0.051 0.012,0.169c-0.021,0.011 -0.021,-0.005 -0.03,-0.025"/>
      <path id="svg_102" fill="#FFFFFF" d="m23.477,-10.431c0.018,0.072 0.007,0.127 -0.026,0.19c-0.053,0.101 -0.112,0.062 -0.165,0.128c-0.05,0.062 -0.099,0.276 -0.079,0.362c-0.169,0.058 -0.009,0.227 -0.015,0.35c-0.002,0.05 -0.041,0.105 -0.045,0.161c-0.01,0.119 0.017,0.266 0.068,0.37c0.097,0.198 0.268,0.413 0.435,0.544c0.19,0.148 0.365,0.572 0.608,0.631c0.177,0.042 0.384,-0.104 0.543,-0.143c0.18,-0.043 0.397,0.01 0.571,-0.053c0.222,-0.079 0.127,-0.337 0.288,-0.45c0.104,-0.074 0.287,-0.01 0.406,-0.051c0.2,-0.069 0.339,-0.263 0.376,-0.46c0.016,-0.082 0.01,-0.145 0.039,-0.221c0.039,-0.103 0.111,-0.16 0.09,-0.293c-0.01,-0.062 -0.052,-0.12 -0.064,-0.187c-0.022,-0.114 0.002,-0.224 0,-0.337c-0.003,-0.2 0.017,-0.379 -0.078,-0.55c-0.38,-0.688 -1.236,-0.929 -1.975,-0.789c-0.18,0.034 -0.287,0.126 -0.442,0.207c-0.17,0.088 -0.139,0.166 -0.318,0.224c-0.081,0.026 -0.216,0.124 -0.215,0.224c0.001,0.115 0.005,0.051 0.012,0.169c-0.021,0.011 -0.021,-0.005 -0.03,-0.025"/>
      <path id="svg_103" fill="#FFFFFF" d="m15.816,-10.431c0.018,0.072 0.007,0.127 -0.026,0.19c-0.053,0.101 -0.112,0.062 -0.165,0.128c-0.05,0.062 -0.099,0.276 -0.079,0.362c-0.169,0.058 -0.009,0.227 -0.015,0.35c-0.002,0.05 -0.041,0.105 -0.045,0.161c-0.01,0.119 0.017,0.266 0.068,0.37c0.097,0.198 0.268,0.413 0.435,0.544c0.19,0.148 0.365,0.572 0.608,0.631c0.177,0.042 0.384,-0.104 0.543,-0.143c0.18,-0.043 0.397,0.01 0.571,-0.053c0.222,-0.078 0.128,-0.336 0.289,-0.449c0.104,-0.074 0.287,-0.01 0.406,-0.051c0.2,-0.069 0.339,-0.263 0.376,-0.46c0.016,-0.082 0.01,-0.145 0.039,-0.221c0.039,-0.103 0.111,-0.16 0.09,-0.293c-0.01,-0.062 -0.052,-0.12 -0.064,-0.187c-0.022,-0.114 0.002,-0.224 0,-0.337c-0.003,-0.2 0.017,-0.379 -0.078,-0.55c-0.38,-0.688 -1.236,-0.929 -1.975,-0.789c-0.18,0.034 -0.287,0.126 -0.442,0.207c-0.17,0.088 -0.139,0.166 -0.318,0.224c-0.081,0.026 -0.216,0.124 -0.215,0.224c0.001,0.115 0.005,0.051 0.012,0.169c-0.021,0.011 -0.021,-0.005 -0.03,-0.025"/>
      <path id="svg_104" fill="#FFFFFF" d="m8.156,-10.431c0.018,0.072 0.007,0.127 -0.026,0.19c-0.053,0.101 -0.112,0.062 -0.165,0.128c-0.05,0.063 -0.099,0.277 -0.079,0.363c-0.169,0.058 -0.01,0.227 -0.015,0.35c-0.003,0.049 -0.041,0.105 -0.045,0.161c-0.01,0.119 0.017,0.266 0.068,0.37c0.097,0.198 0.268,0.413 0.435,0.544c0.19,0.148 0.365,0.572 0.608,0.631c0.177,0.042 0.384,-0.105 0.543,-0.143c0.18,-0.043 0.397,0.01 0.571,-0.053c0.222,-0.079 0.127,-0.337 0.288,-0.45c0.104,-0.074 0.287,-0.01 0.406,-0.051c0.2,-0.069 0.339,-0.263 0.376,-0.46c0.016,-0.082 0.01,-0.145 0.039,-0.221c0.039,-0.103 0.111,-0.16 0.09,-0.293c-0.01,-0.062 -0.052,-0.12 -0.064,-0.187c-0.022,-0.114 0.002,-0.224 0,-0.337c-0.003,-0.2 0.017,-0.379 -0.078,-0.55c-0.38,-0.688 -1.236,-0.929 -1.975,-0.789c-0.18,0.034 -0.287,0.126 -0.442,0.207c-0.17,0.088 -0.139,0.166 -0.318,0.224c-0.081,0.026 -0.216,0.124 -0.215,0.224c0.001,0.115 0.005,0.051 0.012,0.169c-0.021,0.011 -0.021,-0.005 -0.03,-0.025"/>
      <path id="svg_105" fill="#FFFFFF" d="m0.495,-10.431c0.018,0.072 0.007,0.127 -0.026,0.19c-0.053,0.101 -0.112,0.062 -0.165,0.128c-0.05,0.063 -0.099,0.277 -0.079,0.363c-0.169,0.058 -0.01,0.227 -0.015,0.35c-0.002,0.05 -0.041,0.105 -0.045,0.161c-0.01,0.119 0.017,0.266 0.068,0.37c0.097,0.198 0.268,0.413 0.435,0.544c0.19,0.148 0.365,0.572 0.608,0.631c0.178,0.042 0.384,-0.105 0.543,-0.143c0.181,-0.043 0.398,0.01 0.572,-0.053c0.222,-0.079 0.127,-0.337 0.288,-0.45c0.104,-0.074 0.287,-0.01 0.406,-0.051c0.2,-0.069 0.339,-0.263 0.376,-0.46c0.016,-0.082 0.01,-0.144 0.039,-0.22c0.039,-0.103 0.111,-0.16 0.09,-0.293c-0.01,-0.062 -0.052,-0.12 -0.064,-0.187c-0.022,-0.114 0.002,-0.224 0,-0.337c-0.003,-0.2 0.017,-0.379 -0.078,-0.55c-0.38,-0.688 -1.236,-0.929 -1.975,-0.789c-0.18,0.034 -0.287,0.126 -0.442,0.207c-0.17,0.088 -0.139,0.166 -0.318,0.224c-0.081,0.026 -0.216,0.124 -0.215,0.224c0.001,0.115 0.005,0.051 0.012,0.169c-0.021,0.011 -0.021,-0.005 -0.03,-0.025"/>
     </g>
    </g>
    <g id="svg_106">
     <path id="svg_107" fill="#FFFFFF" d="m69.439,-2.778c0.018,0.072 0.008,0.127 -0.026,0.19c-0.052,0.101 -0.113,0.063 -0.165,0.128c-0.051,0.062 -0.099,0.276 -0.079,0.362c-0.169,0.058 -0.01,0.227 -0.015,0.35c-0.002,0.05 -0.041,0.105 -0.045,0.161c-0.01,0.119 0.017,0.266 0.068,0.37c0.097,0.198 0.268,0.413 0.435,0.544c0.19,0.148 0.365,0.572 0.608,0.631c0.177,0.042 0.384,-0.104 0.543,-0.143c0.18,-0.043 0.397,0.01 0.571,-0.053c0.222,-0.079 0.127,-0.337 0.288,-0.45c0.104,-0.074 0.287,-0.01 0.406,-0.051c0.2,-0.07 0.339,-0.263 0.376,-0.46c0.016,-0.082 0.01,-0.145 0.039,-0.221c0.038,-0.103 0.111,-0.16 0.09,-0.293c-0.01,-0.062 -0.051,-0.12 -0.064,-0.187c-0.021,-0.114 0.002,-0.224 0,-0.337c-0.003,-0.2 0.017,-0.379 -0.078,-0.55c-0.38,-0.688 -1.236,-0.929 -1.975,-0.789c-0.18,0.034 -0.287,0.126 -0.442,0.207c-0.17,0.088 -0.139,0.166 -0.318,0.224c-0.081,0.026 -0.215,0.124 -0.215,0.224c0.002,0.115 0.005,0.051 0.012,0.169c-0.021,0.011 -0.021,-0.005 -0.03,-0.025"/>
     <path id="svg_108" fill="#FFFFFF" d="m61.778,-2.778c0.018,0.072 0.007,0.127 -0.026,0.19c-0.052,0.101 -0.112,0.063 -0.165,0.128c-0.05,0.062 -0.099,0.276 -0.079,0.362c-0.169,0.058 -0.01,0.227 -0.015,0.35c-0.002,0.05 -0.041,0.105 -0.045,0.161c-0.01,0.119 0.017,0.266 0.068,0.37c0.097,0.198 0.268,0.413 0.435,0.544c0.19,0.148 0.365,0.572 0.608,0.631c0.178,0.042 0.384,-0.104 0.544,-0.143c0.18,-0.043 0.397,0.01 0.571,-0.053c0.222,-0.079 0.127,-0.337 0.288,-0.45c0.104,-0.074 0.287,-0.01 0.406,-0.051c0.2,-0.069 0.339,-0.263 0.376,-0.46c0.016,-0.082 0.01,-0.145 0.039,-0.221c0.039,-0.103 0.111,-0.16 0.09,-0.293c-0.01,-0.062 -0.052,-0.12 -0.064,-0.187c-0.022,-0.114 0.002,-0.224 0,-0.337c-0.003,-0.2 0.017,-0.379 -0.078,-0.55c-0.38,-0.688 -1.236,-0.929 -1.975,-0.789c-0.18,0.034 -0.287,0.126 -0.442,0.207c-0.17,0.088 -0.139,0.166 -0.318,0.224c-0.081,0.028 -0.216,0.125 -0.215,0.225c0.001,0.115 0.005,0.051 0.012,0.169c-0.021,0.011 -0.021,-0.005 -0.03,-0.025"/>
     <path id="svg_109" fill="#FFFFFF" d="m54.118,-2.778c0.018,0.072 0.007,0.127 -0.026,0.19c-0.052,0.101 -0.112,0.063 -0.165,0.128c-0.05,0.062 -0.099,0.276 -0.079,0.362c-0.169,0.058 -0.01,0.227 -0.015,0.35c-0.002,0.05 -0.041,0.105 -0.045,0.161c-0.01,0.119 0.017,0.266 0.068,0.37c0.097,0.198 0.268,0.413 0.435,0.544c0.19,0.148 0.365,0.572 0.608,0.631c0.178,0.042 0.384,-0.104 0.543,-0.143c0.18,-0.043 0.397,0.01 0.571,-0.053c0.222,-0.079 0.127,-0.337 0.288,-0.45c0.104,-0.074 0.287,-0.01 0.406,-0.051c0.2,-0.069 0.339,-0.263 0.376,-0.46c0.016,-0.082 0.01,-0.145 0.039,-0.221c0.039,-0.103 0.111,-0.16 0.09,-0.293c-0.01,-0.062 -0.052,-0.12 -0.064,-0.187c-0.022,-0.114 0.002,-0.224 0,-0.337c-0.003,-0.2 0.017,-0.379 -0.078,-0.55c-0.38,-0.688 -1.236,-0.929 -1.975,-0.789c-0.18,0.034 -0.287,0.126 -0.442,0.207c-0.17,0.088 -0.139,0.166 -0.318,0.224c-0.08,0.028 -0.215,0.125 -0.214,0.225c0.001,0.115 0.005,0.051 0.012,0.169c-0.021,0.011 -0.021,-0.005 -0.03,-0.025"/>
     <path id="svg_110" fill="#FFFFFF" d="m46.458,-2.778c0.018,0.072 0.007,0.127 -0.026,0.19c-0.053,0.101 -0.112,0.062 -0.165,0.128c-0.05,0.062 -0.099,0.276 -0.079,0.362c-0.169,0.058 -0.01,0.227 -0.015,0.35c-0.002,0.05 -0.041,0.105 -0.045,0.161c-0.01,0.119 0.017,0.266 0.068,0.37c0.097,0.198 0.268,0.413 0.435,0.544c0.19,0.148 0.365,0.572 0.608,0.631c0.177,0.042 0.384,-0.104 0.543,-0.143c0.18,-0.043 0.397,0.01 0.571,-0.053c0.222,-0.079 0.127,-0.337 0.288,-0.45c0.104,-0.074 0.287,-0.01 0.406,-0.051c0.2,-0.069 0.339,-0.263 0.376,-0.46c0.016,-0.082 0.01,-0.145 0.039,-0.221c0.039,-0.103 0.111,-0.16 0.09,-0.293c-0.01,-0.062 -0.052,-0.12 -0.064,-0.187c-0.022,-0.114 0.002,-0.224 0,-0.337c-0.003,-0.2 0.017,-0.379 -0.078,-0.55c-0.38,-0.688 -1.236,-0.929 -1.975,-0.789c-0.18,0.034 -0.287,0.126 -0.442,0.207c-0.17,0.088 -0.139,0.166 -0.318,0.224c-0.081,0.028 -0.216,0.125 -0.215,0.225c0.001,0.115 0.005,0.051 0.012,0.169c-0.021,0.011 -0.021,-0.005 -0.03,-0.025"/>
     <path id="svg_111" fill="#FFFFFF" d="m38.797,-2.778c0.018,0.072 0.007,0.127 -0.026,0.19c-0.053,0.101 -0.112,0.062 -0.165,0.128c-0.05,0.062 -0.099,0.276 -0.079,0.362c-0.169,0.058 -0.01,0.227 -0.015,0.35c-0.002,0.05 -0.041,0.105 -0.045,0.161c-0.01,0.119 0.017,0.266 0.068,0.37c0.097,0.198 0.268,0.413 0.435,0.544c0.19,0.148 0.365,0.572 0.608,0.631c0.178,0.042 0.384,-0.104 0.544,-0.143c0.18,-0.043 0.397,0.01 0.571,-0.053c0.222,-0.079 0.127,-0.337 0.288,-0.45c0.104,-0.074 0.287,-0.01 0.406,-0.051c0.2,-0.069 0.339,-0.263 0.376,-0.46c0.016,-0.082 0.01,-0.145 0.039,-0.221c0.039,-0.103 0.111,-0.16 0.09,-0.293c-0.01,-0.062 -0.052,-0.12 -0.064,-0.187c-0.022,-0.114 0.002,-0.224 0,-0.337c-0.003,-0.2 0.017,-0.379 -0.078,-0.55c-0.38,-0.688 -1.236,-0.929 -1.975,-0.789c-0.18,0.034 -0.287,0.126 -0.442,0.207c-0.17,0.088 -0.139,0.166 -0.318,0.224c-0.081,0.028 -0.216,0.125 -0.215,0.225c0.001,0.115 0.005,0.051 0.012,0.169c-0.021,0.011 -0.021,-0.005 -0.03,-0.025"/>
     <path id="svg_112" fill="#FFFFFF" d="m31.137,-2.778c0.018,0.072 0.007,0.127 -0.026,0.19c-0.053,0.101 -0.112,0.062 -0.165,0.128c-0.05,0.062 -0.099,0.276 -0.079,0.362c-0.169,0.058 -0.01,0.227 -0.015,0.35c-0.002,0.05 -0.041,0.105 -0.045,0.161c-0.01,0.119 0.017,0.266 0.068,0.37c0.097,0.198 0.268,0.413 0.435,0.544c0.19,0.148 0.365,0.572 0.608,0.631c0.177,0.042 0.384,-0.104 0.543,-0.143c0.18,-0.043 0.397,0.01 0.571,-0.053c0.222,-0.079 0.127,-0.337 0.288,-0.45c0.104,-0.074 0.287,-0.01 0.406,-0.051c0.2,-0.069 0.339,-0.263 0.376,-0.46c0.016,-0.082 0.01,-0.145 0.039,-0.221c0.039,-0.103 0.111,-0.16 0.09,-0.293c-0.01,-0.062 -0.052,-0.12 -0.064,-0.187c-0.022,-0.114 0.002,-0.224 0,-0.337c-0.003,-0.2 0.017,-0.379 -0.078,-0.55c-0.38,-0.688 -1.236,-0.929 -1.975,-0.789c-0.18,0.034 -0.287,0.126 -0.442,0.207c-0.17,0.088 -0.139,0.166 -0.318,0.224c-0.081,0.028 -0.215,0.125 -0.214,0.225c0.001,0.115 0.005,0.051 0.012,0.169c-0.021,0.011 -0.021,-0.005 -0.03,-0.025"/>
     <path id="svg_113" fill="#FFFFFF" d="m23.477,-2.778c0.018,0.072 0.007,0.127 -0.026,0.19c-0.053,0.101 -0.112,0.062 -0.165,0.128c-0.05,0.062 -0.099,0.276 -0.079,0.362c-0.169,0.058 -0.01,0.227 -0.015,0.35c-0.002,0.05 -0.041,0.105 -0.045,0.161c-0.01,0.119 0.017,0.266 0.068,0.37c0.097,0.198 0.268,0.413 0.435,0.544c0.19,0.148 0.365,0.572 0.608,0.631c0.177,0.042 0.384,-0.104 0.543,-0.143c0.18,-0.043 0.397,0.01 0.571,-0.053c0.222,-0.079 0.127,-0.337 0.288,-0.45c0.104,-0.074 0.287,-0.01 0.406,-0.051c0.2,-0.069 0.339,-0.263 0.376,-0.46c0.016,-0.082 0.01,-0.145 0.039,-0.221c0.039,-0.103 0.111,-0.16 0.09,-0.293c-0.01,-0.062 -0.052,-0.12 -0.064,-0.187c-0.022,-0.114 0.002,-0.224 0,-0.337c-0.003,-0.2 0.017,-0.379 -0.078,-0.55c-0.38,-0.688 -1.236,-0.929 -1.975,-0.789c-0.18,0.034 -0.287,0.126 -0.442,0.207c-0.17,0.088 -0.139,0.166 -0.318,0.224c-0.081,0.026 -0.216,0.124 -0.215,0.224c0.001,0.115 0.005,0.051 0.012,0.169c-0.021,0.011 -0.021,-0.005 -0.03,-0.025"/>
     <path id="svg_114" fill="#FFFFFF" d="m15.816,-2.778c0.018,0.072 0.007,0.127 -0.026,0.19c-0.053,0.101 -0.112,0.062 -0.165,0.128c-0.05,0.062 -0.099,0.276 -0.079,0.362c-0.169,0.058 -0.01,0.227 -0.015,0.35c-0.002,0.05 -0.041,0.105 -0.045,0.161c-0.01,0.119 0.017,0.266 0.068,0.37c0.097,0.198 0.268,0.413 0.435,0.544c0.19,0.148 0.365,0.572 0.608,0.631c0.177,0.042 0.384,-0.104 0.543,-0.143c0.18,-0.043 0.397,0.01 0.571,-0.053c0.222,-0.079 0.127,-0.337 0.288,-0.45c0.104,-0.074 0.287,-0.01 0.406,-0.051c0.2,-0.069 0.339,-0.263 0.376,-0.46c0.016,-0.082 0.01,-0.145 0.039,-0.221c0.039,-0.103 0.111,-0.16 0.09,-0.293c-0.01,-0.062 -0.052,-0.12 -0.064,-0.187c-0.022,-0.114 0.002,-0.224 0,-0.337c-0.003,-0.2 0.017,-0.379 -0.078,-0.55c-0.38,-0.688 -1.236,-0.929 -1.975,-0.789c-0.18,0.034 -0.287,0.126 -0.442,0.207c-0.17,0.088 -0.139,0.166 -0.318,0.224c-0.081,0.026 -0.216,0.124 -0.215,0.224c0.001,0.115 0.005,0.051 0.012,0.169c-0.02,0.012 -0.021,-0.004 -0.03,-0.024"/>
     <path id="svg_115" fill="#FFFFFF" d="m8.156,-2.778c0.018,0.072 0.007,0.127 -0.026,0.19c-0.053,0.101 -0.112,0.063 -0.165,0.128c-0.05,0.062 -0.099,0.276 -0.079,0.362c-0.169,0.058 -0.01,0.227 -0.015,0.35c-0.003,0.05 -0.041,0.105 -0.045,0.161c-0.01,0.119 0.017,0.266 0.068,0.37c0.097,0.198 0.268,0.413 0.435,0.544c0.19,0.148 0.365,0.572 0.608,0.631c0.177,0.042 0.384,-0.104 0.543,-0.143c0.18,-0.043 0.397,0.01 0.571,-0.053c0.222,-0.079 0.127,-0.337 0.288,-0.45c0.104,-0.074 0.287,-0.01 0.406,-0.051c0.2,-0.069 0.339,-0.263 0.376,-0.46c0.016,-0.082 0.01,-0.145 0.039,-0.221c0.039,-0.103 0.111,-0.16 0.09,-0.293c-0.01,-0.062 -0.052,-0.12 -0.064,-0.187c-0.022,-0.114 0.002,-0.224 0,-0.337c-0.003,-0.2 0.017,-0.379 -0.078,-0.55c-0.38,-0.688 -1.236,-0.929 -1.975,-0.789c-0.179,0.036 -0.286,0.128 -0.441,0.209c-0.17,0.088 -0.139,0.166 -0.318,0.224c-0.082,0.026 -0.216,0.123 -0.215,0.223c0.001,0.115 0.005,0.051 0.011,0.169c-0.02,0.011 -0.021,-0.005 -0.03,-0.025"/>
     <path id="svg_116" fill="#FFFFFF" d="m0.495,-2.778c0.018,0.072 0.008,0.127 -0.026,0.19c-0.052,0.101 -0.113,0.063 -0.165,0.128c-0.051,0.063 -0.099,0.276 -0.079,0.362c-0.169,0.058 -0.01,0.227 -0.015,0.35c-0.002,0.05 -0.041,0.105 -0.045,0.161c-0.01,0.119 0.017,0.266 0.068,0.37c0.097,0.198 0.268,0.413 0.435,0.544c0.19,0.148 0.365,0.572 0.608,0.631c0.178,0.042 0.384,-0.104 0.543,-0.143c0.181,-0.043 0.398,0.01 0.572,-0.052c0.222,-0.079 0.127,-0.337 0.288,-0.45c0.104,-0.074 0.287,-0.01 0.406,-0.051c0.2,-0.07 0.339,-0.263 0.376,-0.46c0.016,-0.082 0.01,-0.145 0.039,-0.221c0.038,-0.103 0.111,-0.16 0.09,-0.293c-0.01,-0.062 -0.051,-0.12 -0.064,-0.187c-0.021,-0.114 0.002,-0.224 0,-0.337c-0.003,-0.2 0.017,-0.379 -0.078,-0.55c-0.38,-0.688 -1.236,-0.929 -1.975,-0.789c-0.18,0.035 -0.286,0.127 -0.442,0.208c-0.17,0.088 -0.139,0.166 -0.318,0.224c-0.081,0.026 -0.215,0.123 -0.215,0.223c0.002,0.115 0.005,0.051 0.012,0.169c-0.021,0.011 -0.022,-0.005 -0.031,-0.025"/>
    </g>
   </g>
  </pattern>
 </defs>
 <g>
  <title>background</title>
  <rect fill="none" id="canvas_background" height="402" width="582" y="-1" x="-1"/>
 </g>
 <g>
  <title>Layer 1</title>
  <path fill="#ffffff" id="svg_117" d="m278.844,143.945c-6.219,1.845 -15.01,3.27 -26.251,4.28c0.506,-25.072 7.044,-46.698 19.712,-64.848c12.435,-18.033 33.441,-30.493 63.054,-37.377c0.184,0.482 0.422,1.447 0.65,2.787c0.23,1.34 0.459,2.259 0.645,2.765c0,0.666 0.045,1.517 0.137,2.527c0.047,1.019 0.092,1.846 0.092,2.542c0,10.262 -2.443,21.688 -7.32,34.308c-5.023,12.62 -12.857,24.229 -23.449,34.828c-9.075,9.067 -18.196,15.147 -27.27,18.188zm113.076,176.921c-11.602,-16.633 -17.406,-35.426 -17.406,-56.286c0,-19.022 5.438,-36.437 16.396,-52.234c5.896,-8.615 15.477,-18.518 28.785,-29.797c-8.752,-10.782 -17.498,-19.16 -26.25,-25.241c-15.846,-10.92 -33.764,-16.403 -53.797,-16.403c-11.932,0 -26.49,2.856 -43.621,8.569c-16.486,5.759 -28.557,8.585 -36.113,8.585c-5.713,0 -17.316,-2.504 -34.822,-7.566c-17.682,-5.054 -32.561,-7.559 -44.676,-7.559c-28.971,0 -52.832,12.107 -71.717,36.337c-19.022,24.552 -28.511,56.057 -28.511,94.377c0,40.771 12.391,83.05 37.126,126.991c25.058,43.574 50.39,65.361 75.952,65.361c8.569,0 19.712,-2.857 33.305,-8.569c13.631,-5.567 25.607,-8.34 35.876,-8.34c10.922,0 23.633,2.695 38.092,8.063c15.293,5.392 27.086,8.08 35.334,8.08c21.557,0 43.152,-16.48 64.893,-49.463c14.098,-21.029 24.459,-42.05 31.045,-63.079c-15.018,-4.563 -28.28,-15.155 -39.891,-31.826z"/>
 </g>
</svg>